<?xml version="1.0" encoding="utf-8"?>
<!-- Generator: Adobe Illustrator 24.3.0, SVG Export Plug-In . SVG Version: 6.00 Build 0)  -->
<svg version="1.1" id="Layer_1" xmlns="http://www.w3.org/2000/svg" xmlns:xlink="http://www.w3.org/1999/xlink" x="0px" y="0px"
	 viewBox="0 0 512 512" style="enable-background:new 0 0 512 512;" xml:space="preserve">
<style type="text/css">
	.st0{fill-rule:evenodd;clip-rule:evenodd;}
	.st1{fill-rule:evenodd;clip-rule:evenodd;fill:#224C92;}
	.st2{fill-rule:evenodd;clip-rule:evenodd;fill:#FFFFFF;}
</style>
<g id="XMLID_1_">
	<g id="XMLID_2_">
		<polygon id="XMLID_69_" class="st0" points="217.17,193.43 219.55,193.43 219.55,211.38 216.89,211.38 207.63,196.94 
			207.63,196.94 207.63,211.38 205.25,211.38 205.25,193.43 208.19,193.43 217.17,208.02 217.17,208.02 		"/>
		<path id="XMLID_3_" class="st0" d="M234,209.98c-0.42,0-0.7-0.28-0.7-0.84v-7.57c0-3.37-3.79-3.65-4.91-3.65
			c-3.23,0-5.33,1.26-5.47,4.35h1.96c0.14-0.98,0.56-2.52,2.95-2.52c2.1,0,3.09,0.7,3.09,2.1c0,1.26-0.56,1.54-1.12,1.54l-3.65,0.42
			c-3.65,0.42-3.93,2.95-3.93,4.07c0,2.24,1.68,3.79,4.07,3.79c2.52,0,3.93-1.26,4.77-2.1c0.14,0.98,0.42,1.96,2.38,1.96
			c0.56,0,0.84-0.14,1.26-0.28v-1.54C234.56,209.84,234.28,209.98,234,209.98z M231.19,206.89c0,1.82-1.96,3.09-4.07,3.09
			c-1.68,0-2.38-0.84-2.38-2.24c0-1.68,1.68-1.96,2.8-2.1c2.66-0.42,3.23-0.56,3.65-0.84L231.19,206.89L231.19,206.89z"/>
		<path id="XMLID_66_" class="st0" d="M239.75,200.16v8.55c0,0.98,0.84,0.98,1.26,0.98h0.84v1.68c-0.84,0.14-1.4,0.14-1.68,0.14
			c-2.24,0-2.66-1.26-2.66-2.8v-8.7h-1.82v-1.82h1.82v-3.65h2.24v3.65h2.1v1.82h-2.1V200.16z"/>
		<polygon id="XMLID_65_" class="st0" points="246.34,211.38 244.09,211.38 244.09,198.34 246.34,198.34 		"/>
		<polygon id="XMLID_64_" class="st0" points="244.09,195.95 244.09,193.43 246.34,193.43 246.34,195.95 		"/>
		<path id="XMLID_4_" class="st0" d="M254.89,197.92c-4.21,0-6.03,3.51-6.03,6.87s1.96,6.87,6.03,6.87c4.21,0,6.03-3.51,6.03-6.87
			C261.06,201.42,259.1,197.92,254.89,197.92z M254.89,209.84c-3.23,0-3.79-3.23-3.79-5.05c0-1.82,0.7-5.05,3.79-5.05
			c3.23,0,3.79,3.23,3.79,5.05C258.82,206.61,258.12,209.84,254.89,209.84z"/>
		<path id="XMLID_61_" class="st0" d="M274.25,211.38H272v-8.13c0-2.24-0.7-3.51-2.8-3.51c-1.26,0-3.51,0.84-3.51,4.35v7.15h-2.24
			v-13.18h2.1v1.82l0,0c0.42-0.7,1.68-2.24,3.93-2.24c1.96,0,4.63,0.84,4.63,4.63v9.12H274.25z"/>
		<path id="XMLID_5_" class="st0" d="M288.41,209.98c-0.42,0-0.7-0.28-0.7-0.84v-7.57c0-3.37-3.79-3.65-4.91-3.65
			c-3.23,0-5.33,1.26-5.47,4.35h1.96c0.14-0.98,0.56-2.52,2.95-2.52c2.1,0,3.09,0.7,3.09,2.1c0,1.26-0.56,1.54-1.12,1.54l-3.65,0.42
			c-3.65,0.42-3.93,2.95-3.93,4.07c0,2.24,1.68,3.79,4.07,3.79c2.52,0,3.93-1.26,4.77-2.1c0.14,0.98,0.42,1.96,2.38,1.96
			c0.56,0,0.84-0.14,1.26-0.28v-1.54C288.97,209.84,288.69,209.98,288.41,209.98z M285.47,206.89c0,1.82-1.96,3.09-4.07,3.09
			c-1.68,0-2.38-0.84-2.38-2.24c0-1.68,1.68-1.96,2.8-2.1c2.66-0.42,3.23-0.56,3.65-0.84V206.89z"/>
		<polygon id="XMLID_58_" class="st0" points="293.74,211.38 291.5,211.38 291.5,193.43 293.74,193.43 		"/>
		<polygon id="XMLID_57_" class="st0" points="307.06,211.38 304.68,211.38 304.68,193.43 307.06,193.43 		"/>
		<path id="XMLID_56_" class="st0" d="M321.65,211.38h-2.24v-8.13c0-2.24-0.7-3.51-2.8-3.51c-1.26,0-3.51,0.84-3.51,4.35v7.15h-2.24
			v-13.18h2.1v1.82l0,0c0.42-0.7,1.68-2.24,3.93-2.24c1.96,0,4.63,0.84,4.63,4.63v9.12H321.65z"/>
		<path id="XMLID_55_" class="st0" d="M332.31,202.13c0-0.84-0.28-2.24-3.09-2.24c-0.7,0-2.66,0.28-2.66,1.82
			c0,1.12,0.7,1.26,2.38,1.82l2.24,0.56c2.66,0.7,3.65,1.68,3.65,3.51c0,2.66-2.24,4.35-5.19,4.35c-5.19,0-5.61-2.95-5.61-4.63h2.1
			c0.14,0.98,0.42,2.66,3.51,2.66c1.54,0,2.95-0.56,2.95-2.1c0-1.12-0.7-1.4-2.66-1.82l-2.52-0.56c-1.82-0.42-3.09-1.4-3.09-3.23
			c0-2.95,2.38-4.21,4.91-4.21c4.63,0,5.05,3.51,5.05,4.07L332.31,202.13L332.31,202.13z"/>
		<path id="XMLID_54_" class="st0" d="M340.16,200.16v8.55c0,0.98,0.84,0.98,1.26,0.98h0.84v1.68c-0.84,0.14-1.4,0.14-1.68,0.14
			c-2.24,0-2.66-1.26-2.66-2.8v-8.7h-1.82v-1.82h1.82v-3.65h2.24v3.65h2.1v1.82h-2.1V200.16z"/>
		<polygon id="XMLID_53_" class="st0" points="346.61,211.38 344.51,211.38 344.51,198.34 346.61,198.34 		"/>
		<polygon id="XMLID_52_" class="st0" points="344.51,195.95 344.51,193.43 346.61,193.43 346.61,195.95 		"/>
		<path id="XMLID_51_" class="st0" d="M352.64,200.16v8.55c0,0.98,0.84,0.98,1.26,0.98h0.84v1.68c-0.84,0.14-1.4,0.14-1.68,0.14
			c-2.24,0-2.66-1.26-2.66-2.8v-8.7h-1.82v-1.82h1.82v-3.65h2.24v3.65h2.1v1.82h-2.1V200.16z"/>
		<path id="XMLID_50_" class="st0" d="M365.55,211.38v-1.96l0,0c-0.98,1.54-2.1,2.38-4.21,2.38c-1.96,0-4.21-0.98-4.21-4.07v-9.4
			h2.24v8.7c0,2.1,1.12,2.95,2.52,2.95c2.8,0,3.65-2.52,3.65-4.35v-7.29h2.24v13.18h-2.24V211.38z"/>
		<path id="XMLID_49_" class="st0" d="M373.68,200.16v8.55c0,0.98,0.84,0.98,1.26,0.98h0.84v1.68c-0.84,0.14-1.4,0.14-1.68,0.14
			c-2.24,0-2.66-1.26-2.66-2.8v-8.7h-1.82v-1.82h1.82v-3.65h2.24v3.65h2.1v1.82h-2.1V200.16z"/>
		<path id="XMLID_6_" class="st0" d="M383.36,209.98c-2.52,0-3.79-1.54-3.79-4.35h9.54c0-4.63-1.82-7.71-5.61-7.71
			c-4.35,0-6.31,3.23-6.31,7.29c0,3.79,2.24,6.59,5.89,6.59c2.1,0,2.95-0.56,3.51-0.84c1.68-1.12,2.24-2.95,2.38-3.65h-2.24
			C386.72,208.3,385.46,209.98,383.36,209.98z M383.22,199.88c2.66,0,3.51,1.82,3.65,3.93h-7.29
			C379.57,201.85,381.25,199.88,383.22,199.88z"/>
		<path id="XMLID_46_" class="st0" d="M401.59,200.16v11.22h-2.24v-11.22h-1.82v-1.82h1.82v-2.24c0-1.96,1.26-2.95,3.37-2.95
			c0.28,0,0.7,0,0.98,0v1.96c-0.28,0-0.56,0-0.84,0c-0.98,0-1.26,0.42-1.26,1.54v1.68h2.24v1.82L401.59,200.16L401.59,200.16z"/>
		<path id="XMLID_7_" class="st0" d="M411.13,197.92c-4.21,0-6.03,3.51-6.03,6.87s1.96,6.87,6.03,6.87c4.21,0,6.03-3.51,6.03-6.87
			S415.33,197.92,411.13,197.92z M411.13,209.84c-3.23,0-3.79-3.23-3.79-5.05c0-1.82,0.7-5.05,3.79-5.05c3.23,0,3.79,3.23,3.79,5.05
			C414.91,206.61,414.21,209.84,411.13,209.84z"/>
		<path id="XMLID_43_" class="st0" d="M422.21,211.38h-2.24V198.2h2.1v2.24l0,0c0.84-1.54,1.96-2.52,3.65-2.52
			c0.28,0,0.42,0,0.56,0.14v2.24h-0.84c-2.1,0-3.37,1.54-3.37,3.51v7.57H422.21z"/>
	</g>
	<g id="XMLID_8_">
		<path id="XMLID_9_" class="st0" d="M224.32,223.16h-9.12l-12.34,22.16h7.57l2.24-3.93h14.31l2.1,3.93h7.43L224.32,223.16z
			 M214.92,236.77l4.77-8.84l4.77,8.84H214.92z"/>
		<path id="XMLID_40_" class="st0" d="M266.95,223.16v12.62v1.26c0,4.35-1.54,7.01-4.63,7.85c-2.24,0.56-2.95,0.56-9.26,0.56
			c-1.68,0-3.09,0-4.49,0c-1.96,0-3.65-0.14-5.19-0.56c-1.4-0.28-2.52-0.98-3.37-1.82c-1.12-1.26-1.68-3.37-1.68-6.45v-13.6h6.73
			v11.64v0.98c0,2.38,0.14,2.8,0.84,3.51c0.7,0.7,1.4,0.84,3.93,0.84h3.09h2.8c3.65,0,4.21-0.56,4.35-4.35v-0.84v-11.78h6.87V223.16
			z"/>
		<polygon id="XMLID_39_" class="st0" points="288.13,245.32 281.4,245.32 281.4,228.77 271.44,228.77 271.44,223.16 297.95,223.16 
			297.95,228.77 288.13,228.77 		"/>
		<path id="XMLID_10_" class="st0" d="M329.36,225.27c-1.4-1.82-3.09-2.24-8.41-2.24h-5.47h-4.77c-1.68,0-3.09,0.14-4.21,0.28
			c-3.51,0.42-5.19,2.38-5.61,6.31l-0.14,4.49c0,0.56,0,0.98,0,1.54c0,4.91,0.56,6.73,2.52,8.27c0.98,0.7,2.38,1.26,3.93,1.4
			c1.68,0.14,4.35,0.28,7.29,0.28c0.28,0,0.7,0,0.98,0l5.05-0.14c5.19-0.14,7.57-0.84,8.98-2.95c1.26-1.68,1.4-2.8,1.4-8.98
			C331.19,228.77,330.77,227.09,329.36,225.27z M323.75,238.73c-0.7,0.98-2.1,1.26-5.19,1.26h-3.79c-3.93,0-5.33-0.14-6.17-0.84
			c-0.7-0.7-0.98-2.1-0.98-5.75s0.7-4.77,3.09-5.05c0.98-0.14,3.51-0.14,7.57-0.14c1.4,0,1.96,0,3.09,0.14
			c2.52,0.28,3.09,1.26,3.09,5.19C324.31,236.77,324.17,238.17,323.75,238.73z"/>
		<polygon id="XMLID_36_" class="st0" points="373.54,245.32 367.23,245.32 367.23,228.49 357.41,245.32 352.08,245.32 
			342.41,228.49 342.41,245.32 336.1,245.32 336.1,223.16 346.75,223.16 354.89,237.89 362.88,223.16 373.54,223.16 		"/>
		<path id="XMLID_11_" class="st0" d="M406.78,225.27c-1.4-1.82-3.09-2.24-8.41-2.24h-5.47h-4.77c-1.68,0-3.09,0.14-4.21,0.28
			c-3.51,0.42-5.19,2.38-5.61,6.31l-0.14,4.49c0,0.56,0,0.98,0,1.54c0,4.91,0.56,6.73,2.52,8.27c0.98,0.7,2.38,1.26,3.93,1.4
			c1.68,0.14,4.49,0.28,7.29,0.28c0.28,0,0.7,0,0.98,0l5.05-0.14c5.19-0.14,7.57-0.84,8.98-2.95c1.26-1.68,1.4-2.8,1.4-8.98
			C408.46,228.77,408.18,227.09,406.78,225.27z M401.03,238.73c-0.7,0.98-2.1,1.26-5.19,1.26h-3.79c-3.93,0-5.33-0.14-6.17-0.84
			c-0.7-0.7-0.98-2.1-0.98-5.75s0.7-4.77,3.09-5.05c0.98-0.14,3.51-0.14,7.57-0.14c1.4,0,1.96,0,3.09,0.14
			c2.52,0.28,3.09,1.26,3.09,5.19C401.73,236.77,401.59,238.17,401.03,238.73z"/>
		<polygon id="XMLID_33_" class="st0" points="427.68,245.32 420.94,245.32 420.94,228.77 410.99,228.77 410.99,223.16 
			437.49,223.16 437.49,228.77 427.68,228.77 		"/>
		<polygon id="XMLID_32_" class="st0" points="447.59,245.32 440.86,245.32 440.86,223.16 447.59,223.16 		"/>
		<polygon id="XMLID_31_" class="st0" points="471.15,245.32 462.6,245.32 450.82,223.16 458.25,223.16 466.94,239.85 
			476.06,223.16 483.49,223.16 		"/>
		<polygon id="XMLID_30_" class="st0" points="486.02,223.16 510.84,223.16 510.84,228.21 492.89,228.21 492.89,232 509.58,232 
			509.58,236.35 492.89,236.35 492.89,240.27 510.84,240.27 510.84,245.32 486.02,245.32 		"/>
	</g>
	<g id="XMLID_12_">
		<path id="XMLID_29_" class="st0" d="M212.4,270.28c0,0.14,0,0.28,0,0.42v0.14c0,1.26,0.56,1.82,2.1,1.96
			c0.84,0,3.23,0.14,4.91,0.14c3.79,0,5.89-0.14,6.45-0.56c0.42-0.28,0.7-0.7,0.7-1.4c0-1.82-0.7-2.1-4.21-2.1c-0.7,0-1.96,0-3.51,0
			c-2.1,0-3.79,0-4.77,0c-0.98,0-1.96,0-2.8-0.14c-4.07-0.28-5.61-1.96-5.61-6.17c0-4.77,1.4-6.45,5.61-6.87
			c1.96-0.14,5.75-0.42,7.85-0.42h0.56h4.77c3.51,0,4.77,0.28,6.03,1.26c0.98,0.7,1.54,1.68,1.82,2.66c0.14,0.56,0.14,1.26,0.14,2.1
			c0,0.28,0,0.56,0,0.84h-6.59c-0.14-1.96-0.56-2.1-5.75-2.1c-0.84,0-2.1,0-3.51,0.14l-1.82,0.14c-1.82,0-2.52,0.56-2.52,1.68
			c0,1.68,0.56,1.82,3.93,1.96h4.49c1.54,0,3.09,0,4.35,0c3.65,0,5.05,0.28,6.31,1.26c1.26,1.12,1.82,2.8,1.82,5.19
			c0,4.63-1.54,6.45-5.75,6.87c-2.38,0.14-6.59,0.42-10.1,0.42c-2.38,0-4.49-0.14-6.31-0.28c-1.54-0.14-2.8-0.42-3.65-0.98
			c-1.54-0.98-1.82-1.82-1.82-4.91v-0.28v-0.84h6.87V270.28z"/>
		<polygon id="XMLID_28_" class="st0" points="239.33,255.14 264.15,255.14 264.15,260.19 246.2,260.19 246.2,263.97 262.89,263.97 
			262.89,268.32 246.2,268.32 246.2,272.25 264.15,272.25 264.15,277.3 239.33,277.3 		"/>
		<path id="XMLID_13_" class="st0" d="M295.14,269.02c-0.14,0-0.42-0.14-0.84-0.14c0.42-0.14,0.7-0.14,0.98-0.28
			c1.68-0.56,2.38-0.98,2.95-1.82c0.7-0.98,0.98-2.38,0.98-4.49c0-5.19-1.96-7.01-7.43-7.01h-20.62v22.16h6.73v-5.61h11.22
			c2.52,0,2.95,0.56,2.95,3.65v2.1h6.87v-3.23v-0.7C298.93,270.43,298.09,269.44,295.14,269.02z M289.11,266.22h-0.28
			c-0.56,0-0.84,0-0.84,0h-10.24v-5.61h10.66c3.37,0,3.79,0.28,3.79,2.95C292.34,265.8,291.78,266.22,289.11,266.22z"/>
		<polygon id="XMLID_25_" class="st0" points="323.75,277.3 315.06,277.3 303.42,255.14 310.85,255.14 319.41,271.83 328.52,255.14 
			336.1,255.14 		"/>
		<polygon id="XMLID_24_" class="st0" points="347.31,277.3 340.58,277.3 340.58,255.14 347.31,255.14 		"/>
		<path id="XMLID_23_" class="st0" d="M383.08,268.88c0,0.7,0,1.12,0,1.4c0,4.35-1.26,6.31-4.63,6.87
			c-1.68,0.28-4.91,0.42-8.41,0.42h-0.42h-4.21c-5.61-0.14-7.15-0.42-8.7-1.96c-1.54-1.82-2.1-4.07-2.1-10.1
			c0-4.91,0.42-6.59,2.1-8.13c0.84-0.84,1.96-1.4,3.23-1.68c1.82-0.42,4.35-0.56,8.7-0.56c3.65,0,6.87,0.14,8.55,0.28
			c1.26,0.14,2.24,0.56,2.95,0.98c1.54,1.12,2.38,2.8,2.38,5.75c0,0.14,0,0.56,0,0.98h-6.45v-0.28c0-2.1-0.7-2.38-5.47-2.38
			c-0.42,0-0.98,0-1.4,0h-3.37c-1.82,0-3.09,0.28-3.65,0.98c-0.56,0.7-0.84,1.68-0.84,4.77c0,3.51,0.14,4.35,1.12,5.19
			c0.7,0.56,1.54,0.7,3.93,0.7h2.66h2.38c4.35,0,4.91-0.42,4.91-3.23H383.08L383.08,268.88z"/>
		<polygon id="XMLID_22_" class="st0" points="389.81,255.14 414.49,255.14 414.49,260.19 396.54,260.19 396.54,263.97 
			413.23,263.97 413.23,268.32 396.54,268.32 396.54,272.25 414.49,272.25 414.49,277.3 389.81,277.3 		"/>
	</g>
	<g id="XMLID_14_">
		<polygon id="XMLID_21_" class="st0" points="204.26,286.55 228.95,286.55 228.95,291.6 211,291.6 211,295.39 227.69,295.39 
			227.69,299.74 211,299.74 211,303.66 228.95,303.66 228.95,308.71 204.26,308.71 		"/>
		<polygon id="XMLID_20_" class="st0" points="255.45,297.63 266.67,308.71 257.42,308.71 249.98,300.72 242.55,308.71 
			233.3,308.71 244.51,297.63 234,286.55 242.97,286.55 250.12,294.41 257.14,286.55 265.83,286.55 		"/>
		<path id="XMLID_19_" class="st0" d="M299.07,300.3c0,0.7,0,1.12,0,1.4c0,4.35-1.26,6.31-4.63,6.87c-1.68,0.28-4.91,0.42-8.41,0.42
			h-0.42h-4.21c-5.61-0.14-7.15-0.42-8.7-1.96c-1.54-1.82-2.1-4.07-2.1-10.1c0-4.91,0.42-6.59,2.1-8.13
			c0.84-0.84,1.96-1.4,3.23-1.68c1.82-0.42,4.35-0.56,8.7-0.56c3.65,0,6.87,0.14,8.55,0.28c1.26,0.14,2.24,0.56,2.95,0.98
			c1.54,1.12,2.38,2.8,2.38,5.75c0,0.14,0,0.56,0,0.98h-6.45v-0.28c0-2.1-0.7-2.38-5.47-2.38c-0.42,0-0.98,0-1.4,0h-3.37
			c-1.82,0-3.09,0.28-3.65,0.98c-0.7,0.7-0.84,1.68-0.84,4.77c0,3.51,0.14,4.35,1.12,5.19c0.7,0.56,1.54,0.7,3.93,0.7h2.66h2.38
			c4.35,0,4.91-0.42,4.91-3.23L299.07,300.3L299.07,300.3z"/>
		<polygon id="XMLID_18_" class="st0" points="304.12,286.55 328.8,286.55 328.8,291.6 310.85,291.6 310.85,295.39 327.54,295.39 
			327.54,299.74 310.85,299.74 310.85,303.66 328.8,303.66 328.8,308.71 304.12,308.71 		"/>
		<polygon id="XMLID_17_" class="st0" points="340.86,303.1 356.15,303.1 356.15,308.71 334.13,308.71 334.13,286.55 340.86,286.55 
					"/>
		<polygon id="XMLID_16_" class="st0" points="366.67,303.1 381.96,303.1 381.96,308.71 359.94,308.71 359.94,286.55 366.67,286.55 
					"/>
		<polygon id="XMLID_15_" class="st0" points="386.02,286.55 410.71,286.55 410.71,291.6 392.75,291.6 392.75,295.39 409.58,295.39 
			409.58,299.74 392.75,299.74 392.75,303.66 410.71,303.66 410.71,308.71 386.02,308.71 		"/>
		<polygon id="XMLID_70_" class="st0" points="446.19,308.71 435.53,308.71 422.21,292.02 422.21,308.71 415.75,308.71 
			415.75,286.55 426.55,286.55 439.88,303.1 439.88,286.55 446.19,286.55 		"/>
		<path id="XMLID_71_" class="st0" d="M480.41,300.3c0,0.7,0,1.12,0,1.4c0,4.35-1.26,6.31-4.63,6.87c-1.68,0.28-4.91,0.42-8.41,0.42
			h-0.42h-4.21c-5.61-0.14-7.15-0.42-8.7-1.96c-1.54-1.82-2.1-4.07-2.1-10.1c0-4.91,0.42-6.59,2.1-8.13
			c0.84-0.84,1.96-1.4,3.23-1.68c1.82-0.42,4.35-0.56,8.7-0.56c3.65,0,6.87,0.14,8.55,0.28c1.26,0.14,2.24,0.56,2.95,0.98
			c1.54,1.12,2.38,2.8,2.38,5.75c0,0.14,0,0.56,0,0.98h-6.45v-0.28c0-2.1-0.7-2.38-5.47-2.38c-0.42,0-0.98,0-1.4,0h-3.37
			c-1.82,0-3.09,0.28-3.65,0.98c-0.56,0.7-0.84,1.68-0.84,4.77c0,3.51,0.14,4.35,1.12,5.19c0.7,0.56,1.54,0.7,3.93,0.7h2.66h2.38
			c4.35,0,4.91-0.42,4.91-3.23L480.41,300.3L480.41,300.3z"/>
		<polygon id="XMLID_72_" class="st0" points="487.28,286.55 511.96,286.55 511.96,291.6 494.01,291.6 494.01,295.39 510.7,295.39 
			510.7,299.74 494.01,299.74 494.01,303.66 511.96,303.66 511.96,308.71 487.28,308.71 		"/>
	</g>
	<path id="XMLID_73_" class="st0" d="M171.31,291.04c1.68-3.93,2.95-8.13,4.07-12.34l-12.62-9.54l15.01-5.19
		c0.14-2.1,0.14-10.94,0-13.04l-15.01-5.19l12.62-9.54c-0.98-4.21-2.38-8.41-4.07-12.34l-15.85-0.28l9.12-13.04
		c-2.24-3.65-4.91-7.15-7.71-10.52l-15.15,4.63l4.63-15.15c-3.37-2.8-6.87-5.33-10.52-7.71l-13.04,9.12l-0.28-15.85
		c-3.93-1.68-8.13-2.95-12.34-4.07l-9.54,12.62l-5.19-15.01c-2.1-0.14-10.94-0.14-13.04,0l-5.19,14.87l-9.54-12.62
		c-4.21,0.98-8.41,2.38-12.34,4.07l-0.28,15.85l-12.9-8.98c-3.65,2.24-7.29,4.91-10.52,7.71l4.63,15.15l-15.29-4.77
		c-2.8,3.37-5.33,6.87-7.71,10.52l8.98,12.9l-15.71,0.42c-1.68,4.07-2.95,8.13-4.07,12.48l12.48,9.54l-14.87,5.19
		c-0.14,2.1-0.14,10.94,0,13.18l14.87,5.19l-12.48,9.54c0.98,4.35,2.38,8.41,4.07,12.48l15.71,0.28l-8.98,12.9
		c2.38,3.79,4.91,7.29,7.71,10.66l15.01-4.63l-4.63,15.01c3.37,2.8,6.87,5.47,10.66,7.71l12.9-8.98l0.28,15.71
		c4.07,1.68,8.13,2.95,12.48,4.07l9.54-12.62l5.19,14.87c2.24,0.14,10.94,0.14,13.04,0l5.19-14.87l9.54,12.62
		c4.21-0.98,8.41-2.38,12.48-4.07l0.28-15.85l12.9,8.98c3.65-2.24,7.29-4.91,10.52-7.71l-4.63-15.15l15.15,4.63
		c2.8-3.37,5.33-6.87,7.71-10.52l-9.12-13.04L171.31,291.04L171.31,291.04z"/>
	<g id="XMLID_74_">
		<path id="XMLID_75_" class="st1" d="M172.71,288.24c1.68-3.93,2.95-8.13,4.07-12.34l-12.62-9.54l15.01-5.19
			c0.14-2.1,0.14-10.94,0-13.04l-15.01-5.19l12.62-9.54c-0.98-4.21-2.38-8.41-4.07-12.34l-15.85-0.28l9.12-13.04
			c-2.24-3.65-4.91-7.15-7.71-10.52l-15.15,4.63l4.63-15.15c-3.37-2.8-6.87-5.33-10.52-7.71l-13.04,9.12l-0.28-15.85
			c-3.93-1.68-8.13-2.95-12.34-4.07l-9.54,12.62l-5.19-15.01c-2.1-0.14-10.94-0.14-13.04,0l-5.19,14.87l-9.54-12.62
			c-4.21,0.98-8.41,2.38-12.34,4.07l-0.28,15.85l-12.9-8.98c-3.65,2.24-7.29,4.91-10.52,7.71l4.63,15.15l-15.01-4.63
			c-2.8,3.37-5.33,6.87-7.71,10.52l8.98,12.9l-15.99,0.28c-1.68,4.07-2.95,8.13-4.07,12.48l12.48,9.54l-14.87,5.19
			c-0.14,2.1-0.14,10.94,0,13.18l14.87,5.19l-12.48,9.54c0.98,4.35,2.38,8.41,4.07,12.48l15.71,0.28l-8.98,12.9
			c2.38,3.79,4.91,7.29,7.71,10.66l15.01-4.63l-4.63,15.01c3.37,2.8,6.87,5.47,10.66,7.71l12.9-8.98l0.28,15.71
			c4.07,1.68,8.13,2.95,12.48,4.07l9.54-12.62l5.19,14.87c2.24,0.14,10.94,0.14,13.04,0l5.19-14.87l9.54,12.62
			c4.21-0.98,8.41-2.38,12.48-4.07l0.28-15.85l12.9,8.98c3.65-2.24,7.29-4.91,10.52-7.71l-4.63-15.15l15.15,4.63
			c2.8-3.37,5.33-6.87,7.71-10.52l-9.12-13.04L172.71,288.24L172.71,288.24z"/>
		<g id="XMLID_76_">
			<path id="XMLID_77_" class="st2" d="M152.51,239.01c0,0-51.05,0-54.98,0c-3.93,0-6.45,3.93-3.23,5.75
				c5.05,2.8,10.24,1.26,15.01,4.49c10.8,7.71,9.54,19.07,5.61,25.66c-3.93,6.59-10.1,8.13-15.71,7.99c-3.51,0-21.74,0-21.74,0
				v-14.16c0,0,17.11-0.14,19.77-0.14c3.37,0,5.61-1.4,5.75-3.37c-0.7-7.15-9.26-3.37-13.46-5.75
				c-12.34-4.07-17.53-22.02-3.09-31.84c4.49-2.95,8.27-2.52,11.22-2.52h54.98L152.51,239.01L152.51,239.01z"/>
			<path id="XMLID_78_" class="st2" d="M47.61,225.97l-26.93,57.08h15.99l6.59-14.16h15.29v14.16H73.7v-56.94H47.61V225.97z
				 M47.47,260.61l11.22-23.56v23.7L47.47,260.61z"/>
			<polygon id="XMLID_81_" class="st2" points="152.51,282.91 121.66,282.91 121.66,268.74 152.51,268.74 			"/>
			<polygon id="XMLID_82_" class="st2" points="152.51,260.61 121.66,260.61 121.66,246.44 152.51,246.44 			"/>
		</g>
		<g id="XMLID_84_">
			<path id="XMLID_85_" class="st0" d="M182.11,294.83c-4.63,0-8.55,3.51-8.55,8.41s3.93,8.41,8.55,8.41s8.55-3.51,8.55-8.41
				C190.66,298.33,186.73,294.83,182.11,294.83z M182.11,310.25c-3.79,0-6.87-2.95-6.87-7.01c0-3.93,2.95-7.01,6.87-7.01
				c3.79,0,6.87,2.95,6.87,7.01C188.84,307.31,185.89,310.25,182.11,310.25z"/>
			<path id="XMLID_91_" class="st0" d="M183.51,303.8c1.4-0.14,2.52-0.98,2.52-2.66c0-1.96-1.12-2.8-3.37-2.8h-3.79v9.68h1.4v-4.21
				h1.68l2.52,4.21h1.68L183.51,303.8z M180.28,302.68v-2.95h1.96c0.98,0,2.1,0.28,2.1,1.4c0,1.54-1.12,1.54-2.38,1.54H180.28z"/>
		</g>
	</g>
</g>
</svg>
