<?xml version="1.0" encoding="utf-8"?>
<!-- Generator: Adobe Illustrator 19.2.1, SVG Export Plug-In . SVG Version: 6.00 Build 0)  -->
<svg version="1.1" id="layer" xmlns="http://www.w3.org/2000/svg" xmlns:xlink="http://www.w3.org/1999/xlink" x="0px" y="0px"
	 viewBox="0 0 652 652" style="enable-background:new 0 0 652 652;" xml:space="preserve">
<style type="text/css">
	.st0{fill:#F77035;}
</style>
<path class="st0" d="M50.9,215.2L26.2,354.5h47.4c0,0,8.1-46.2,8.4-48.1h67.7l6.1-34.4H88.2c0.5-2.4,3.6-20.8,3.8-22.5h67.7l6-34.2
	H50.9z M468.6,354.5l8.4-47.4l2.9-21.3c0,0,0.5-4.8,0.7-9.6c1.7,16.5,8.4,78.2,8.4,78.2h32.9c0,0,28-61,35.6-77.7
	c-1.7,6.5-3.6,13.2-3.6,13.2l-4.3,21.3l-7.7,43.3h42.8l24.6-139.2h-56.5c0,0-34.4,74.9-37.8,82.1c-0.7-7.9-8.6-82.1-8.6-82.1h-56.2
	l-24.2,136.8L407,215.2h-57.2l-61.5,122.5c0.2-3.6,1-7.7,1.7-12.4c4.8-26.6-2.6-31.6-14.6-36.4c14.1-5,23.7-17,26.6-33.3
	c2.2-12,0.7-20.6-4.8-27c-7.7-9.1-23.7-13.4-50.2-13.4h-72.7l-24.6,139.2h44.3c0,0,8.1-45.7,8.4-47.6h23.2c9.8,0,15.1,1.2,17.7,4.3
	c2.6,3.1,2.4,9.3,1,17.9c-2.2,12.4-2.6,21.3-1.9,24.4l0.2,1h83.7c0,0,12.2-24.2,12.7-25.4h38.5c0,1.9,1.9,25.4,1.9,25.4H468.6z
	 M347.5,304l23.7-56.5l4.5,56.5H347.5z M235.1,272.2h-26.8l4.3-22.5h30.6c7.2,0,14.6,1.9,14.6,10.5
	C257.6,270.2,247.5,272.2,235.1,272.2 M619.3,215.2c4,0.1,7.1,3.4,6.9,7.4c0,0,0,0,0,0c0.3,3.8-2.5,7.2-6.4,7.5
	c-3.8,0.3-7.2-2.5-7.5-6.4c0-0.4,0-0.8,0-1.2C612.2,218.7,615.3,215.4,619.3,215.2C619.3,215.2,619.3,215.2,619.3,215.2
	 M619.3,228.4c3.1-0.1,5.6-2.7,5.5-5.9c0,0,0-0.1,0-0.1c0.3-3-1.9-5.7-5-6c-3-0.3-5.7,1.9-6,5c0,0.3,0,0.7,0,1c-0.2,3.1,2,5.7,5.1,6
	C619,228.4,619.1,228.4,619.3,228.4 M619,223.1h-1.2v3.6h-1.4v-8.4h3.1c1.9,0,3.1,0.7,3.1,2.4c0.1,1.1-0.7,2.1-1.9,2.2
	c-0.1,0-0.2,0-0.3,0l2.2,3.8h-1.4L619,223.1z M619.3,221.9c1,0,1.9,0,1.9-1.2s-1-1.2-1.7-1.2h-1.4v2.4H619.3z M222.4,392.5
	c0.5,0.5,0.7,1.2,0.7,1.9c0.1,1-0.3,1.9-1,2.6c-0.9,0.5-2,0.8-3.1,0.7c-3.1-0.2-5.7-0.5-7.4-0.5c-1.7,0-4.1-0.2-6.9-0.2
	c-1.2,6.5-2.4,12.9-3.6,19.6c-0.5,2.4-0.7,5.3-1.2,8.4s-0.7,5.7-1,7.7c0,0.9-0.4,1.8-1.2,2.4c-0.9,0.5-1.9,0.8-2.9,0.7
	c-1,0.1-2-0.2-2.6-1c-0.7-0.5-1-1.3-1-2.2c0-1,0.2-2.2,0.5-4.3s0.5-4.1,1-6.2c0.5-2.2,0.7-4.1,1-5.5c0.5-2.6,0.7-5.3,1.4-7.9
	c0.7-2.6,1-5,1.4-7.4c0.1-0.7,0.2-1.3,0.5-1.9c0.2-0.7,0.2-1.4,0.5-2.4c-2.8,0-5.5,0.2-8.2,0.9c-1.5,0.4-3,1-4.3,1.9
	c-0.8,0.8-1.2,2-1.2,3.1c-0.1,1.2,0.3,2.4,1,3.3c0.2,0.2,0.3,0.5,0.2,0.7c0,0.7-0.5,1.2-1.2,1.9c-0.7,0.5-1.5,0.9-2.4,1
	c-0.5,0-1-0.2-1.4-0.5c-0.8-0.7-1.4-1.6-1.7-2.6c-0.5-1.2-0.7-2.5-0.7-3.8c-0.1-2.7,0.9-5.3,2.9-7.2c2.6-2,5.6-3.4,8.9-4.1
	c5-1,10.2-1.4,15.3-1.2c3.8,0,6.9,0,9.3,0.2c2.4,0.2,4.3,0.5,6,0.7C220.8,391.6,221.7,391.9,222.4,392.5z M238.9,433.4
	c-1-1.7-1.5-3.6-1.4-5.5c0-2.4,0.2-4.8,0.5-7.2c0.4-2.4,0.9-4.7,1.7-6.9c0.2-0.9,0.7-1.6,1.4-2.2c0.9-0.5,2-0.8,3.1-0.7
	c0.6,0,1.2,0.2,1.7,0.5c0.3,0.3,0.5,0.8,0.5,1.2c0,0.2-0.2,1.2-0.5,2.9c-0.2,1.2-0.7,2.4-1,3.6c-0.5,2.4-0.9,4.9-1,7.4
	c-0.1,0.6,0,1.1,0.2,1.7c0.2,0.3,0.6,0.5,1,0.5c0.5,0,1.2-0.5,1.9-1.7c1-1.5,1.9-3.1,2.6-4.8c1-2.6,1.9-5.2,2.6-7.9
	c0.1-0.8,0.6-1.6,1.2-2.2c0.8-0.6,1.7-0.8,2.6-0.7c0.7,0,1.4,0,1.7,0.2c0.3,0.3,0.5,0.7,0.5,1.2c-0.3,2.4-0.8,4.8-1.4,7.2
	c-0.7,2.8-1.2,5.6-1.4,8.4c0,0.6,0.2,1.2,0.5,1.7c0.2,0.5,0.7,0.5,1.2,0.5c0.9-0.1,1.7-0.6,2.4-1.2c1.4-1.3,2.7-2.7,3.8-4.3
	c0.4-0.4,0.9-0.7,1.4-0.7c0.5,0,0.7,0.2,1.2,0.7c0.3,0.5,0.5,1.1,0.5,1.7c0.1,1.2-0.3,2.4-1,3.3c-1.3,1.8-3,3.3-4.8,4.5
	c-1.8,1.2-3.9,1.7-6,1.7c-1.5,0-2.9-0.7-3.8-1.9c-0.9-1.7-1.3-3.6-1.2-5.5c-0.3,2-1.2,4-2.6,5.5c-1,1.1-2.3,1.8-3.8,1.9
	C241.5,435.9,239.9,434.9,238.9,433.4z M308.8,424.1c0.3,0.5,0.5,1.1,0.5,1.7c0.1,1.2-0.3,2.4-1,3.3c-1.4,1.8-3.1,3.4-5,4.5
	c-1.8,1.2-4,1.8-6.2,1.7c-7.2,0-10.8-5-10.8-15.1c0-1.6,0-3.2,0.2-4.8h-2.2c-0.7,0-1.5-0.2-2.2-0.5c-0.5-0.5-0.5-1-0.5-1.9
	c0-1.9,0.7-2.9,2.4-2.9h3.1c0.5-3.6,1.3-7.1,2.6-10.5c1-2.8,2.5-5.4,4.5-7.7c1.3-1.7,3.3-2.8,5.5-2.9c1.4,0,2.8,0.7,3.6,1.9
	c0.9,1.4,1.3,3.1,1.2,4.8c-0.1,5.6-2.6,10.8-6.9,14.4h6c0.4,0,0.9,0.2,1.2,0.5c0.3,0.4,0.5,0.9,0.5,1.4c0,2.4-1.9,3.6-6,3.6H293v4.1
	c-0.1,2.6,0.3,5.2,1.2,7.7c0.8,1.4,2.4,2.3,4.1,2.2c1.5,0,2.9-0.5,4.1-1.4c1.5-1.2,2.8-2.6,4.1-4.1c0.4-0.4,0.9-0.7,1.4-0.7
	C308.3,423.4,308.5,423.6,308.8,424.1z M296.8,396.3c-0.8,1.8-1.4,3.6-1.9,5.5c-0.5,2.4-1,5-1.4,7.7c2-1.6,3.6-3.7,4.8-6
	c0.9-1.9,1.5-3.9,1.7-6c0-2.2-0.5-3.1-1.2-3.1S297.3,394.9,296.8,396.3z M356.4,424.1c0.3,0.5,0.5,1.1,0.5,1.7
	c0.1,1.2-0.3,2.4-1,3.3c-1.4,1.7-3,3.2-4.8,4.5c-1.4,1.1-3.2,1.8-5,1.9c-2.9-0.2-5.3-2.1-6.2-4.8c-1.1,1.5-2.4,2.7-3.8,3.8
	c-1.2,0.7-2.5,1-3.8,1c-2,0.1-4-0.8-5.3-2.4c-1.5-1.7-2.3-3.9-2.2-6.2c-0.2-5.5,2.3-10.7,6.7-13.9c2-1.5,4.4-2.4,6.9-2.6
	c0.5-6,1.8-11.8,3.8-17.5c1.9-4.8,4.3-7.2,7.4-7.2c1.6,0,3,0.8,3.8,2.2c1.1,1.9,1.6,4,1.4,6.2c-0.2,4.8-1.1,9.4-2.9,13.9
	c-2.1,5.6-4.7,11.1-7.7,16.3c0,1.5,0.4,2.9,1,4.3c0.5,0.7,1.2,1.4,1.9,1.4c1.1-0.1,2.1-0.5,2.9-1.2c1.5-1.3,2.9-2.7,4.1-4.3
	c0.4-0.4,0.9-0.7,1.4-0.7C355.9,423.4,356.1,423.6,356.4,424.1z M336,429.3c1-0.9,1.9-2,2.6-3.1c-0.3-2.1-0.5-4.3-0.5-6.5v-4.1
	c-2,0.6-3.7,2-4.8,3.8c-1.2,2-1.9,4.3-1.9,6.7c0,2.6,1,3.8,2.6,3.8C334.8,430,335.5,429.7,336,429.3z M347,394.4
	c-0.8,3.1-1.4,6.2-1.7,9.3c-0.5,3.8-0.7,7.9-1,12c3.8-8.6,6-15.5,6-20.6c0.1-1,0-2.1-0.2-3.1c-0.2-0.7-0.5-1.2-0.7-1.2
	C348.5,390.7,347.8,392,347,394.4L347,394.4z M390.6,433.2c-1-2-1.5-4.2-1.4-6.5c0-2,0.3-4,0.7-6c0.4-2.3,1-4.7,1.7-6.9
	c0.1-0.9,0.6-1.7,1.2-2.4c0.8-0.6,1.7-0.8,2.6-0.7c1.9,0,2.6,0.5,2.6,1.7c-0.1,2.1-0.5,4.2-1,6.2c-0.7,2.6-1.1,5.2-1.2,7.9
	c0,0.8,0.2,1.6,0.5,2.4c0.3,0.6,0.8,0.9,1.4,1c0.7,0,1.4-0.5,2.4-1.4s2.2-2.2,3.8-4.1c0.4-0.4,0.9-0.7,1.4-0.7
	c0.5,0,0.7,0.2,1.2,0.7c0.3,0.5,0.5,1.1,0.5,1.7c0.1,1.2-0.3,2.4-1,3.3c-3.6,4.3-6.7,6.5-9.8,6.5
	C394.1,435.9,391.9,434.9,390.6,433.2z M392.7,406.1c-0.8-0.8-1.2-1.8-1.2-2.9c0-1.2,0.5-2.3,1.4-3.1c1-0.8,2.3-1.2,3.6-1.2
	c1.1-0.1,2.2,0.3,3.1,1c0.8,0.7,1.2,1.6,1.2,2.6c0.1,1.3-0.4,2.5-1.4,3.3c-1,0.8-2.3,1.2-3.6,1.2
	C394.7,407.2,393.5,406.9,392.7,406.1L392.7,406.1z M430.3,432.4c-2-2.1-3-4.8-2.9-7.7c-0.1-2.6,0.5-5.1,1.7-7.4
	c1-2,2.5-3.8,4.2-5.1c1.7-1.2,3.7-1.7,5.7-1.7c1.7-0.1,3.3,0.5,4.5,1.7c1,1.2,1.6,2.7,1.7,4.3c0.1,1.3-0.3,2.7-1,3.8
	c-0.6,0.9-1.6,1.5-2.6,1.4c-0.6,0-1.2-0.2-1.7-0.5c-0.5-0.3-0.8-0.9-0.7-1.4v-1c0-0.2,0.2-0.5,0.2-0.7c0.2-0.5,0.3-0.9,0.2-1.4
	c0-0.5,0-0.7-0.2-1c-0.2-0.3-0.6-0.5-1-0.5c-0.9,0.1-1.7,0.5-2.2,1.2c-0.7,0.8-1.3,1.8-1.7,2.9c-0.5,1.3-0.7,2.7-0.7,4.1
	c0,4.1,1.7,6.2,5.3,6.2c1.7-0.1,3.3-0.6,4.8-1.4c1.9-1.1,3.6-2.6,5-4.3c0.4-0.4,0.9-0.7,1.4-0.7c0.5,0,0.7,0.2,1.2,0.7
	c0.3,0.5,0.5,1.1,0.5,1.7c0.1,1.2-0.3,2.4-1,3.3c-1.6,2-3.6,3.7-6,4.8c-2.1,1.1-4.4,1.7-6.7,1.7
	C435.5,435.7,432.5,434.6,430.3,432.4z"/>
<path class="st0" d="M214.3,433.4c-0.6-2.2-0.8-4.4-0.7-6.7c0-4.4,0.7-8.7,1.9-12.9c0.2-0.9,0.8-1.7,1.7-2.2c0.9-0.5,2-0.8,3.1-0.7
	c0.7,0,1.2,0,1.4,0.2c0.3,0.2,0.5,0.6,0.5,1c-0.1,1.3-0.4,2.6-0.7,3.8c-0.3,1.2-0.6,2.3-1,3.5c-0.3,1.3-0.5,2.5-0.5,3.8
	c0.9-2.6,2.2-5.1,3.8-7.4c1.1-1.7,2.6-3,4.3-4.1c1.2-0.7,2.5-1.1,3.8-1.2c1.6-0.3,3.1,0.8,3.3,2.4c0.1,0.3,0.1,0.6,0,0.9
	c0,0.5-0.2,1.7-0.5,3.3c-0.2,1.7-0.5,2.4-0.5,2.6c0,1.2,0.5,1.9,1.4,1.9c1,0,2.2-0.7,3.8-2.4c0.4-0.4,0.9-0.7,1.4-0.7
	c0.5,0,0.7,0.2,1.2,0.7c0.3,0.5,0.5,1.1,0.5,1.7c0.1,1.1-0.3,2.2-1,3.1c-1,1-2.1,1.9-3.3,2.6c-1.3,0.8-2.8,1.2-4.3,1.2
	c-1.6,0.1-3.1-0.4-4.3-1.4c-1-1-1.5-2.4-1.4-3.8c0-0.6,0.1-1.1,0.2-1.7v-1.4c0-0.5-0.2-1-0.5-1c-0.2,0-1.2,0.5-2.2,1.7
	c-1.1,1.5-2,3.1-2.6,4.8c-0.9,2-1.6,4.1-2.2,6.2c-0.5,1.7-0.7,2.9-1.4,3.3c-0.6,0.6-1.5,1-2.4,1
	C215.9,435.6,214.7,434.7,214.3,433.4z M267.4,435.3c-0.8-0.7-1.4-1.8-1.4-2.9c0-0.9,0.3-1.8,1-2.4c0.8-0.7,1.8-1,2.9-1
	c0.6,0,1.1,0.1,1.7,0.2c0.5,0,1,0.1,1.4,0.2c0-0.9-0.3-1.8-0.7-2.6c-0.3-0.9-0.8-1.7-1.4-2.4c-0.5-0.7-1.1-1.3-1.7-1.9
	c-1,1.9-2.1,3.6-3.3,5.3c-1,1.4-2.2,2.7-3.6,3.8c-0.5,0.6-1.2,1-1.9,1c-0.6,0-1.1-0.3-1.4-0.7c-0.3-0.4-0.4-0.9-0.5-1.4
	c0-0.7,0.2-1.4,0.7-1.9l0.7-1c1.6-1.9,3-3.9,4.3-6c0.5-1,1.2-2.4,2.2-4.1s1.7-3.6,2.4-5.3c0.8-1.5,2.4-2.5,4.1-2.4
	c0.7-0.1,1.5,0,2.2,0.2c0.5,0.2,0.5,0.5,0.5,1c0,0.3-0.1,0.7-0.2,1c-0.2,0.5-0.2,1-0.5,1.4c-0.6,0.9-0.9,2-1,3.1
	c0,0.6,0.2,1.2,0.5,1.7c0.5,0.8,1.1,1.6,1.7,2.4c1,1.2,1.9,2.5,2.6,3.8c0.6,1,1,2.2,1,3.3v1.4c2.4-1.2,4.5-3,6-5.3
	c0.4-0.4,0.9-0.7,1.4-0.7c0.5,0,0.7,0.2,1.2,0.7c0.3,0.5,0.5,1.1,0.5,1.7c0,1.2-0.3,2.3-1,3.3c-1.4,1.8-3.1,3.4-5,4.5
	c-1.9,0.8-3.9,1.2-6,1.2c-1.4,1.1-3.2,1.7-5,1.7C269.9,436.7,268.5,436.3,267.4,435.3z M329.6,424.1c0.3,0.5,0.5,1.1,0.5,1.7
	c0.1,1.2-0.3,2.4-1,3.3c-1.5,1.9-3.3,3.3-5.5,4.3c-2.3,1.3-5,2-7.7,1.9c-3.2,0.2-6.3-0.9-8.6-3.1c-2.2-2.1-3.3-5.1-3.1-8.1
	c0-2.3,0.5-4.6,1.4-6.7c1-2,2.4-3.8,4.3-5c1.8-1.2,4-1.9,6.2-1.9c1.8-0.1,3.5,0.6,4.8,1.9c1.3,1.3,2,3.2,1.9,5c0,2.3-1,4.6-2.6,6.2
	c-2.6,2.1-5.6,3.5-8.9,4.1c1.1,1.7,3,2.6,5,2.4c1.9-0.1,3.8-0.6,5.5-1.7c2-1.2,3.7-2.6,5.3-4.3c0.4-0.4,0.9-0.7,1.4-0.7
	C329,423.4,329.4,423.7,329.6,424.1z M311.9,418.1c-1,1.7-1.5,3.6-1.4,5.5l0,0c1.7-0.3,3.4-1.1,4.8-2.2c1.1-0.8,1.8-2,1.9-3.3
	c0-0.6-0.2-1.2-0.5-1.7c-0.3-0.5-0.9-0.7-1.4-0.7C313.7,415.7,312.8,416.7,311.9,418.1z M372.2,435.3c-0.8-0.7-1.4-1.8-1.4-2.9
	c0-0.9,0.3-1.8,1-2.4c0.8-0.7,1.8-1,2.9-1c0.6,0,1.1,0.1,1.7,0.2c0.5,0,1,0.1,1.4,0.2c0-0.9-0.3-1.8-0.7-2.6
	c-0.3-0.9-0.8-1.7-1.4-2.4c-0.5-0.7-1.1-1.3-1.7-1.9c-1,1.9-2.1,3.6-3.3,5.3c-1,1.4-2.2,2.7-3.6,3.8c-0.5,0.6-1.2,1-1.9,1
	c-0.6,0-1.1-0.3-1.4-0.7c-0.3-0.4-0.4-0.9-0.5-1.4c0-0.7,0.2-1.4,0.7-1.9l0.7-1c1.6-1.9,3-3.9,4.3-6c0.5-1,1.2-2.4,2.2-4.1
	s1.7-3.6,2.4-5.3c0.8-1.5,2.4-2.5,4.1-2.4c0.7-0.1,1.5,0,2.2,0.2c0.5,0.2,0.5,0.5,0.5,1c0,0.3-0.1,0.7-0.2,1c-0.2,0.5-0.2,1-0.5,1.4
	c-0.6,0.9-0.9,2-1,3.1c0,0.6,0.2,1.2,0.5,1.7c0.5,0.8,1.1,1.6,1.7,2.4c1,1.2,1.9,2.5,2.6,3.8c0.6,1,1,2.2,1,3.3v1.4
	c2.4-1.2,4.5-3,6-5.3c0.4-0.4,0.9-0.7,1.4-0.7c0.5,0,0.7,0.2,1.2,0.7c0.3,0.5,0.5,1.1,0.5,1.7c0.1,1.2-0.3,2.4-1,3.3
	c-1.4,1.8-3.1,3.4-5,4.5c-1.9,0.8-3.9,1.2-6,1.2c-1.4,1.1-3.2,1.7-5,1.7C374.8,436.8,373.2,436.3,372.2,435.3z M403,433.4
	c-0.6-2.2-0.9-4.5-0.8-6.8c0-4.4,0.7-8.7,1.9-12.9c0.2-0.9,0.8-1.7,1.7-2.2c0.9-0.5,2-0.8,3.1-0.7c0.7,0,1.2,0,1.4,0.2
	c0.3,0.2,0.5,0.6,0.5,1c-0.1,1.3-0.4,2.6-0.7,3.8c-0.3,1.2-0.6,2.4-1,3.6c-0.3,1.3-0.5,2.5-0.5,3.8c0.9-2.6,2.2-5.1,3.8-7.4
	c1.1-1.7,2.6-3,4.3-4.1c1.2-0.7,2.5-1.1,3.8-1.2c1.6-0.3,3.1,0.8,3.3,2.4c0.1,0.3,0.1,0.6,0,0.9c-0.2,2.5-0.6,5-1.2,7.4
	c-0.5,2-0.8,4-1,6c0,1.4,0.5,2.2,1.4,2.2c0.9-0.1,1.7-0.6,2.4-1.2c1.4-1.3,2.7-2.7,3.8-4.3c0.4-0.4,0.9-0.7,1.4-0.7
	c0.5,0,0.7,0.2,1.2,0.7c0.3,0.5,0.5,1.1,0.5,1.7c0.1,1.2-0.3,2.4-1,3.3c-1.3,1.8-3,3.3-4.8,4.5c-1.8,1.2-3.9,1.7-6,1.7
	c-1.5,0.1-3-0.5-4.1-1.7c-1-1.3-1.6-2.9-1.4-4.5c0.1-1.8,0.3-3.5,0.7-5.3c0.4-1.5,0.6-3,0.7-4.5c0-0.5-0.2-1-0.5-1
	c-0.2,0-1.2,0.5-1.9,1.7c-1,1.5-1.9,3.1-2.6,4.8c-1,2-1.7,4.1-2.2,6.2c-0.5,1.7-0.7,2.9-1.4,3.3c-0.6,0.6-1.5,1-2.4,1
	C404.5,435.5,403.3,434.7,403,433.4z M472.2,424.1c0.3,0.5,0.5,1.1,0.5,1.7c0,1.2-0.3,2.3-1,3.3c-1.5,1.9-3.3,3.3-5.5,4.3
	c-2.3,1.3-5,2-7.7,1.9c-3.2,0.2-6.3-0.9-8.6-3.1c-2.2-2.1-3.3-5.1-3.1-8.1c0-2.3,0.5-4.6,1.4-6.7c1-2,2.4-3.8,4.3-5
	c1.8-1.2,4-1.9,6.2-1.9c1.8-0.1,3.5,0.6,4.8,1.9c1.3,1.3,2,3.2,1.9,5c0,2.3-1,4.6-2.6,6.2c-2.6,2.1-5.6,3.5-8.9,4.1
	c1.1,1.7,3,2.6,5,2.4c1.9-0.1,3.8-0.6,5.5-1.7c2-1.2,3.7-2.6,5.3-4.3c0.4-0.4,0.9-0.7,1.4-0.7C471.6,423.3,472,423.6,472.2,424.1z
	 M454.4,418.1c-1,1.7-1.5,3.6-1.4,5.5l0,0c1.7-0.3,3.4-1.1,4.8-2.2c1.1-0.8,1.8-2,1.9-3.3c0-0.6-0.2-1.2-0.5-1.7
	c-0.3-0.5-0.9-0.7-1.4-0.7C456.4,415.9,455.1,416.8,454.4,418.1z M487.7,434.6c-0.7-0.6-1-1.5-1-2.4v-0.5c0.5-3.6,1-7.4,1.4-11.2
	c0.5-3.8,1-6.9,1.4-9.1l-4.1,1.2h-0.7c-0.6,0-1.2-0.2-1.7-0.7c-0.4-0.5-0.6-1.2-0.5-1.9v-0.5c0-0.6,0.2-1.2,0.7-1.7
	c0.5-0.6,1.1-1.1,1.9-1.2c1.5-0.7,3-1.1,4.5-1.4l2.2-0.5c0.6-0.2,1.3-0.3,1.9-0.2c0.9,0,1.7,0.2,2.4,0.7c0.5,0.6,0.8,1.4,0.7,2.2
	c0,0.5,0,1-0.2,1.4c-0.5,2.6-1.7,10.5-3.1,23.4c0,1.9-1.5,3.4-3.4,3.4c-0.1,0-0.3,0-0.4,0C489,435.6,488.3,435.2,487.7,434.6z
	 M523.3,407.8c2,2.7,3.1,6,2.9,9.3c0,3.3-0.6,6.5-1.9,9.6c-2.2,5.4-7.4,8.9-13.2,8.9c-2.4,0.1-4.7-0.6-6.7-1.9c-1.7-1.2-2.7-3-2.9-5
	v-0.5c-0.1-0.8,0.3-1.7,1-2.2c0.7-0.5,1.5-0.7,2.4-0.7c0.7,0,1.4,0.2,1.9,0.7c0.6,0.6,1,1.3,1.2,2.2c0.2,0.7,0.7,1.4,1.4,1.7
	c0.7,0.5,1.5,0.7,2.4,0.7c2,0.1,3.8-0.8,5-2.4c1.4-2.1,2.3-4.6,2.4-7.2c-0.8,1-1.9,1.7-3.1,2.2c-1.2,0.5-2.5,0.7-3.8,0.7
	c-1.7,0-3.3-0.4-4.8-1.2c-1.4-0.7-2.5-1.8-3.3-3.1c-0.8-1.3-1.3-2.8-1.2-4.3c0-1.9,0.5-3.8,1.4-5.5c1-1.6,2.4-2.9,4.1-3.8
	c1.9-1,4.1-1.5,6.2-1.4C518,404.2,521.1,405.5,523.3,407.8z M517.4,417.1c0.9-0.9,1.3-2.1,1.2-3.3c0.1-1.1-0.3-2.2-1-3.1
	c-0.7-0.9-1.8-1.3-2.9-1.2c-1.3-0.1-2.5,0.4-3.3,1.4c-0.8,1-1.2,2.3-1.2,3.6c-0.3,1.8,1,3.6,2.8,3.8c0.3,0,0.7,0,1,0
	C515.3,418.3,516.5,417.9,517.4,417.1L517.4,417.1z M551.3,422.4c1.2,1.2,1.9,2.8,1.9,4.5c0.1,1.7-0.5,3.3-1.7,4.5
	c-1.2,1.2-2.7,2.2-4.3,2.9c-4.8,1.5-10,1.2-14.6-1c-1.7-1.1-2.8-3-2.9-5c-0.1-1,0.2-2,1-2.6c0.5-0.6,1.3-1,2.2-1
	c0.7,0,1.4,0.2,1.9,0.7c0.5,0.6,0.8,1.4,1,2.2c0.2,0.9,0.7,1.6,1.4,2.2c1.1,0.6,2.3,0.8,3.6,0.7c1.3,0.1,2.7-0.3,3.8-1
	c1.5-0.9,1.9-2.9,0.9-4.3c-0.2-0.4-0.6-0.7-0.9-0.9c-1.4-0.7-3-1-4.5-1c-0.6,0-1.2-0.2-1.7-0.7c-0.4-0.5-0.6-1.1-0.5-1.7
	c0-0.7,0.1-1.3,0.5-1.9c0.3-0.5,0.9-0.8,1.4-0.7c1.8-0.1,3.6-0.7,5-1.9c1-0.9,1.6-2.2,1.7-3.6c0-1.9-1.4-2.9-4.1-2.9
	s-4.8,1.2-5.3,3.6c-0.1,0.8-0.6,1.5-1.2,1.9c-0.6,0.4-1.2,0.6-1.9,0.7c-1.4,0.2-2.7-0.8-2.9-2.1c0-0.2,0-0.5,0-0.7
	c0-1.5,0.5-2.9,1.4-4.1c1.1-1.4,2.6-2.5,4.3-3.1c2.1-0.8,4.2-1.2,6.5-1.2c2.7-0.1,5.4,0.5,7.7,1.9c1.7,1.4,2.7,3.5,2.6,5.7
	c-0.1,1.8-0.7,3.5-1.9,4.8c-1.3,1.6-3.1,2.7-5,3.3C548.5,420.5,550.2,421.2,551.3,422.4z M584.6,425.7c0.1,1-0.2,2-1,2.6
	c-1,0.5-2.2,0.8-3.3,0.7h-1.2l-0.2,2.9c0,1.2-0.3,2.4-1,3.3c-0.8,0.7-1.8,1-2.9,1c-1.9,0-2.9-1.2-2.9-3.3v-1l0.2-2.6h-11.5
	c-0.8,0-1.6-0.3-2.2-1c-0.6-0.8-0.9-1.7-1-2.6c0-0.7,0.2-1.5,0.5-2.2c1.8-5.3,4.2-10.4,6.9-15.3c0.5-0.9,1.2-1.8,1.9-2.6
	c0.9-0.5,2-0.8,3.1-0.7c0.6,0,1.2,0.1,1.7,0.5c0.4,0.4,0.7,0.9,0.7,1.4c0,0.6-0.2,1.2-0.5,1.7c-2.8,4.9-5.2,10-7.2,15.3h8.1
	c0.4-3.1,1-6.3,1.7-9.3c0.1-1,0.6-1.8,1.4-2.4c0.7-0.6,1.7-0.9,2.6-1c1.7,0,2.6,0.7,2.6,2.4v1c-0.7,3.1-1.3,6.2-1.7,9.3h1.9
	C583.6,423.4,584.6,424.1,584.6,425.7z"/>
</svg>
