<?xml version="1.0" encoding="utf-8"?>
<!-- Generator: Adobe Illustrator 19.2.1, SVG Export Plug-In . SVG Version: 6.00 Build 0)  -->
<svg version="1.1" id="layer" xmlns="http://www.w3.org/2000/svg" xmlns:xlink="http://www.w3.org/1999/xlink" x="0px" y="0px"
	 viewBox="0 0 652 652" style="enable-background:new 0 0 652 652;" xml:space="preserve">
<style type="text/css">
	.st0{fill-rule:evenodd;clip-rule:evenodd;fill:#0032A0;}
	.st1{fill-rule:evenodd;clip-rule:evenodd;fill:#FFE900;}
	.st2{fill:#FFE900;}
</style>
<rect x="15.3" y="257.5" class="st0" width="623.6" height="139.8"/>
<g>
	<path class="st1" d="M610,370.1v1l1.7,2.8h1.2L611,371c1-0.1,1.7-0.6,1.7-1.8c0-1.4-0.7-1.9-2.4-1.9H610v0.8h0.1
		c0.7,0,1.5,0.3,1.5,1.1C611.7,370.1,610.9,370.1,610,370.1"/>
	<path class="st1" d="M610,365.8v-1c-3.2,0-5.8,2.4-5.8,5.7s2.6,5.8,5.8,5.8v-1c-2.7,0-4.7-2.1-4.7-4.9S607.4,365.8,610,365.8"/>
	<path class="st1" d="M610,375.4v1c3.2,0,5.8-2.5,5.8-5.8c0-3.3-2.6-5.7-5.8-5.7v1c2.6,0,4.7,1.9,4.7,4.7
		C614.8,373.3,612.7,375.4,610,375.4"/>
	<polygon class="st1" points="610,368 610,367.2 607.8,367.2 607.8,373.9 608.8,373.9 608.8,371.1 610,371.1 610,370.1 608.8,370.1 
		608.8,368 	"/>
	<path class="st2" d="M154.4,279.4l0.9-0.3l60.4,0c-0.8,1-2.1,2-2.6,2.7c-3.2,3.8-2.9,4.4-5.9,14.3l-20.8,66
		c-2.4,8-2.8,11.1-1.9,15.5h-50c3.2-3.7,5.6-7.7,8.5-17.1l18.7-61.1l-0.8,0.8l-51.7,77.4H79.3l-5.6-77.7h-0.3l-17.1,55.4
		c-3.3,11.1-3.9,17.5-3,22.3H29.6c2.9-5.1,3.9-6.6,7.2-17.7l19-63.1c3.3-11.1,2.9-13.1,1.1-17.7h57.7l3.4,53.5h0.3L154.4,279.4z"/>
	<path class="st2" d="M217.8,305.1c1.5-4.9,2.3-8.6,4.2-11.8c9.4-15.6,24.2-14.3,33.8-14.3h63.6c7.6,0,21.6,2.5,23.3,17.1
		c0.4,3.7-0.8,7.4-2.3,12.8l-13.4,42c-2,6.1-3.8,12.1-6.7,15.8c-8.3,10.9-21.2,10.7-33.3,10.7h-58.3c-17.3,0-30.5-9.7-25.1-27.5
		L217.8,305.1z M247.2,354c-1.4,4.8,0.9,7.2,5.8,7.2h19.2c4.9,0,7.8-1.6,9.3-6.4l17-52.3c1.4-4.8-1.9-7.7-6.8-7.7h-18.8
		c-4.9,0-7.8,1.6-9.3,6.4L247.2,354z"/>
	<path class="st2" d="M355.6,305.1c1.5-4.9,2.3-8.6,4.2-11.8c9.4-15.6,24.2-14.3,33.8-14.3h63.6c7.6,0,21.6,2.5,23.3,17.1
		c0.4,3.7-0.8,7.4-2.3,12.8l-13.4,42c-2,6.1-3.9,12.1-6.7,15.8c-8.3,10.9-21.2,10.7-33.3,10.7h-58.3c-17.2,0-30.5-9.7-25.1-27.5
		L355.6,305.1z M385,354c-1.4,4.8,0.9,7.2,5.8,7.2h19.2c4.9,0,7.8-1.6,9.3-6.4l17-52.3c1.4-4.8-1.9-7.7-6.8-7.7h-18.8
		c-4.9,0-7.8,1.6-9.3,6.4L385,354z"/>
	<path class="st2" d="M611.7,319.9c-2.6,2.4-5.1,7.2-7.1,13.9l-7.3,24.3c-3.7,12.2-4.3,14.7-2.5,19.4h-35.4l0.2-8.6h-0.3
		c-3.4,5.7-5.2,8.5-15.8,8.5h-44.7c-3.9,0-17.1-2.5-19.8-14.1c-0.8-3.7,0.1-8.4,1.8-14l13.1-41.3c2-6.5,3.7-12.9,6.4-16.8
		c7.8-11.6,23.6-12.1,27.7-12.1h91l-2.6,19.4c-4.9-1.3-7.2-2.3-14.4-2.3l-53.1,0c-4.9,0-7.8,1.5-9.3,6.3L523,354.3
		c-1.4,4.8,1,6.9,5.9,6.9h12.6c9.3,0,11.3-0.8,13.5-7.9l5.4-17.9l-15.2,0c-2.8,0-6.5,0.9-8.7,1.8l5.4-17.6L611.7,319.9z"/>
</g>
</svg>
