<?xml version="1.0" encoding="UTF-8"?>
<svg version="1.1" xmlns="http://www.w3.org/2000/svg" width="1169" height="343">
<path d="M0 0 C1.6226791 1.6122102 3.1978071 3.25354641 4.75390625 4.9296875 C5.96046875 6.13625 5.96046875 6.13625 7.19140625 7.3671875 C8.03703125 8.2128125 8.88265625 9.0584375 9.75390625 9.9296875 C10.32625 10.46722656 10.89859375 11.00476562 11.48828125 11.55859375 C41.48806739 40.29838888 59.83838337 85.87526427 61.01776123 127.05134583 C61.08036817 130.57376211 61.08364414 134.09434818 61.06640625 137.6171875 C61.06524811 138.35415863 61.06408997 139.09112976 61.06289673 139.85043335 C60.96276267 172.17187109 60.96276267 172.17187109 54.75390625 179.9296875 C52.37225745 181.92409489 49.83427934 183.64139147 47.25390625 185.3671875 C45.71353246 186.4251767 44.17452044 187.48515069 42.63671875 188.546875 C41.83524414 189.09827148 41.03376953 189.64966797 40.20800781 190.21777344 C36.12508304 193.06590998 32.12797247 196.02800129 28.12890625 198.9921875 C27.3407251 199.57427979 26.55254395 200.15637207 25.74047852 200.75610352 C21.91618636 203.58179322 18.09942001 206.41727206 14.2890625 209.26171875 C12.92318324 210.27604996 11.55729814 211.29037331 10.19140625 212.3046875 C9.5660498 212.77527588 8.94069336 213.24586426 8.29638672 213.73071289 C3.97962486 216.9296875 3.97962486 216.9296875 1.75390625 216.9296875 C1.72304932 217.75984375 1.69219238 218.59 1.66040039 219.4453125 C0.97500503 233.36803159 -0.96702569 247.12109749 -2.80859375 260.9296875 C-3.14177106 263.45826816 -3.47445722 265.98691358 -3.80664062 268.515625 C-4.6141327 274.65440376 -5.42767684 280.79235619 -6.24609375 286.9296875 C-8.00136635 286.92849411 -8.00136635 286.92849411 -9.792099 286.92727661 C-20.84132697 286.92366811 -31.8900907 286.95155524 -42.93916988 287.0099659 C-48.6191442 287.03898917 -54.29870674 287.05706766 -59.97875977 287.04980469 C-65.46446946 287.04319837 -70.94936638 287.06577145 -76.43490791 287.10824203 C-78.52354602 287.11934994 -80.61226678 287.12009441 -82.70091057 287.11011124 C-85.63605283 287.09788468 -88.56873463 287.1231168 -91.50366211 287.15673828 C-92.35962479 287.14451736 -93.21558746 287.13229645 -94.0974884 287.1197052 C-100.0549408 287.24199407 -103.5483222 288.93419061 -108.29636478 292.51008415 C-114.32953309 296.9028516 -122.11702741 296.5116521 -129.24609375 295.9296875 C-134.44378184 294.9846533 -138.18996084 293.80347251 -142.30445862 290.39936829 C-146.68401284 287.25400777 -150.49907984 287.21767564 -155.76147461 287.27026367 C-156.689086 287.25977997 -157.61669739 287.24929626 -158.57241821 287.23849487 C-161.6189356 287.20984078 -164.66431002 287.21602519 -167.7109375 287.22265625 C-169.83087074 287.20953541 -171.9507915 287.19423 -174.07069397 287.17683411 C-179.63557544 287.13701676 -185.20012961 287.12679571 -190.76513672 287.12280273 C-196.44964506 287.11346523 -202.13396159 287.07604773 -207.81835938 287.04101562 C-218.96092857 286.97647285 -230.10335398 286.94320555 -241.24609375 286.9296875 C-242.29437349 278.83706694 -243.33785381 270.74384786 -244.37530518 262.64983273 C-244.85724453 258.89100529 -245.34080031 255.13240092 -245.828125 251.37426758 C-246.29883761 247.7437669 -246.76520635 244.11273168 -247.2286377 240.48129463 C-247.40571249 239.09970994 -247.58432054 237.71832082 -247.76452637 236.33714104 C-248.01771658 234.39448345 -248.26482568 232.45103629 -248.51171875 230.50756836 C-248.72489746 228.85210243 -248.72489746 228.85210243 -248.94238281 227.16319275 C-249.26446774 223.73406602 -249.29724219 220.37188548 -249.24609375 216.9296875 C-249.77976563 216.68863281 -250.3134375 216.44757813 -250.86328125 216.19921875 C-253.88686333 214.58829387 -256.60505595 212.62555261 -259.37109375 210.6171875 C-259.97800049 210.17987305 -260.58490723 209.74255859 -261.21020508 209.29199219 C-262.53019891 208.34027979 -263.84925456 207.38726512 -265.16748047 206.43310547 C-268.00643829 204.37974603 -270.85232427 202.33608249 -273.69848633 200.29272461 C-275.19891131 199.2098947 -276.69480573 198.1207614 -278.1862793 197.02563477 C-282.22514753 194.06471498 -286.29937987 191.22532573 -290.51171875 188.515625 C-304.011954 179.61748506 -304.011954 179.61748506 -306.0703125 174.02734375 C-306.84606848 170.23938408 -307.15565263 166.78987903 -307.24609375 162.9296875 C-307.40523045 161.59640757 -307.57534013 160.2644108 -307.75390625 158.93359375 C-308.52766447 152.20560216 -308.49028088 145.44418781 -308.49609375 138.6796875 C-308.49676849 137.97204254 -308.49744324 137.26439758 -308.49813843 136.53530884 C-308.43833471 96.88544256 -295.88528551 57.29616277 -271.24609375 25.9296875 C-270.58996094 25.053125 -269.93382812 24.1765625 -269.2578125 23.2734375 C-237.8955826 -17.16252493 -192.16380408 -40.0296573 -142.12109375 -46.47265625 C-91.04702814 -51.65099901 -37.85715887 -34.89442469 0 0 Z " fill="#ED1E24" transform="translate(308.24609375,47.0703125)"/>
<path d="M0 0 C0.76145712 9.56962212 1.24881462 19.12732579 1.56999969 28.72025681 C1.6514354 31.15202069 1.73604888 33.58365809 1.8213501 36.01528931 C1.94414497 39.52311451 2.06572594 43.03097854 2.18634033 46.53887939 C2.5062917 55.82570178 2.83811018 65.11210258 3.171875 74.3984375 C3.20569401 75.33996044 3.23951302 76.28148338 3.27435684 77.25153732 C3.95998269 96.28799594 4.7176105 115.32102729 5.52857208 134.35253906 C5.62457702 136.61503178 5.71929662 138.87757497 5.81365967 141.14013672 C5.98890828 145.33579233 6.1697339 149.5311868 6.3515625 153.7265625 C6.40250061 154.94783844 6.45343872 156.16911438 6.50592041 157.42739868 C6.78254435 163.66027871 7.22495949 169.80873589 8 176 C8.02870178 175.16668655 8.05740356 174.33337311 8.0869751 173.47480774 C8.46869686 162.42049407 8.85707948 151.36642122 9.25 140.3125 C9.28220768 139.40629787 9.31441536 138.50009575 9.34759903 137.56643295 C10.49047874 105.47572682 11.79254287 73.39319274 13.1875 41.3125 C13.23276321 40.27147251 13.27802643 39.23044502 13.32466125 38.15787125 C13.87814764 25.43836166 14.43653197 12.71907121 15 0 C17.88270773 -0.02583109 20.76518128 -0.0446903 23.64794922 -0.05957031 C24.86492744 -0.07154953 24.86492744 -0.07154953 26.10649109 -0.08377075 C32.06349547 -0.10681672 37.41043862 0.49876345 43.125 2.25 C43.88296875 2.45496094 44.6409375 2.65992188 45.421875 2.87109375 C50.63001211 4.34762747 55.22122112 6.46432141 60 9 C59.44561096 17.90701519 57.8597441 26.52751464 56.08837891 35.25512695 C55.78719122 36.7610099 55.48651087 38.26699439 55.18629456 39.77307129 C54.37525917 43.83420322 53.55712544 47.89387498 52.7375989 51.95330071 C51.87678167 56.22335846 51.02243819 60.49471138 50.16732788 64.76591492 C48.73025372 71.9393541 47.28899219 79.11194095 45.84472656 86.28393555 C43.81617419 96.35744494 41.79526818 106.43247693 39.77586865 116.50782454 C38.19843581 124.37661157 36.61890984 132.24497868 35.0390625 140.11328125 C34.78759736 141.3658498 34.78759736 141.3658498 34.53105211 142.64372277 C33.561753 147.47122783 32.59137749 152.29851441 31.61947441 157.12549591 C31.32694729 158.57892849 31.03470669 160.03241877 30.74279594 161.48597527 C28.89751116 170.6727365 26.98560799 179.84249568 25 189 C25.21687973 188.21039886 25.43375946 187.42079773 25.6572113 186.60726929 C40.31597635 133.24960653 40.31597635 133.24960653 46.47680664 113.37744141 C48.98899612 105.2031913 51.18909323 96.95629504 53.37548828 88.68994141 C55.52127768 80.63274784 57.89425722 72.66708796 60.3684082 64.70556641 C62.98685347 56.20866373 65.29151229 47.63861082 67.57055664 39.04541016 C69.54058495 31.63647661 71.62388416 24.29069084 74 17 C88.70615017 21.2373653 103.50315541 29.82885215 112 43 C111.59200724 46.85986373 110.21975009 49.95169633 108.515625 53.41015625 C107.74158325 54.99582397 107.74158325 54.99582397 106.9519043 56.61352539 C106.39027588 57.75168701 105.82864746 58.88984863 105.25 60.0625 C104.04990422 62.51914358 102.8547965 64.97819964 101.66015625 67.4375 C101.35378738 68.06717178 101.04741852 68.69684357 100.73176575 69.34559631 C97.63899244 75.71515594 94.65519566 82.13380514 91.6875 88.5625 C86.89250828 98.93499691 82.05728399 109.28741678 77.1875 119.625 C76.68842133 120.68489639 76.68842133 120.68489639 76.17926025 121.76620483 C72.72604162 129.09978529 69.26898147 136.43154247 65.80699158 143.76098633 C58.39917382 159.4464563 51.01677346 175.13429557 44 191 C44.43062744 190.26136719 44.86125488 189.52273437 45.30493164 188.76171875 C48.26069538 183.69308509 51.21807969 178.62543619 54.18359375 173.5625 C60.51601288 162.74235667 66.79268994 151.89229859 73 141 C78.53706799 131.28396261 84.12742848 121.60103769 89.7746582 111.94848633 C95.97434457 101.34777171 102.10117608 90.70533156 108.23242188 80.06494141 C112.47764727 72.70381439 116.73928526 65.35216889 121 58 C133.16882298 63.69428304 139.52024096 78.23277623 144.21484375 90.01953125 C145.07611641 93.2889394 145.13155683 94.835737 144 98 C142.390625 100.33203125 142.390625 100.33203125 140.25 102.8125 C139.43789063 103.7715625 138.62578125 104.730625 137.7890625 105.71875 C137.34208008 106.24210937 136.89509766 106.76546875 136.43457031 107.3046875 C133.78496694 110.43587297 131.20890734 113.62708041 128.625 116.8125 C127.79331299 117.834646 127.79331299 117.834646 126.94482422 118.87744141 C123.37237381 123.2767806 119.85747348 127.71675702 116.375 132.1875 C112.41129866 137.27355768 108.31010108 142.21633658 104.11791992 147.11499023 C100.40191135 151.47674653 96.8596838 155.95679796 93.3425293 160.47949219 C88.99290604 166.05352785 84.49833978 171.50292921 79.9921875 176.95068359 C76.24489633 181.48246023 72.5389815 186.04261421 68.8828125 190.6484375 C65.89233526 194.3834319 62.83684236 198.06494508 59.78515625 201.75 C57.98244413 203.86379399 57.98244413 203.86379399 57 206 C57.80188751 205.12705795 58.60377502 204.25411591 59.42996216 203.35472107 C69.0350921 192.95206212 78.96482855 182.9042955 88.9921875 172.91015625 C90.67633755 171.22787687 92.36026282 169.54537243 94.04397583 167.86265564 C98.42442984 163.48597582 102.80788075 159.11231013 107.1920166 154.73931885 C111.68585603 150.25580468 116.17678021 145.76937243 120.66796875 141.28320312 C129.44250177 132.51931722 138.22021152 123.75862069 147 115 C153.25790881 120.89924338 154.01665452 129.99273429 154.359375 138.203125 C154.40067606 140.42685229 154.42662785 142.65091578 154.4375 144.875 C154.44740967 145.94443848 154.45731934 147.01387695 154.4675293 148.11572266 C154.31985656 161.72073761 154.31985656 161.72073761 149.26293945 166.71582031 C147.05389222 168.49094292 144.78269097 170.09678594 142.4375 171.6875 C141.59413086 172.28344971 140.75076172 172.87939941 139.88183594 173.4934082 C138.12753104 174.73230839 136.36785065 175.96362988 134.60302734 177.1875 C129.86009675 180.49002455 125.1965521 183.90330385 120.52709961 187.30859375 C116.9339231 189.91920184 113.32143341 192.46699228 109.609375 194.90625 C108.91618164 195.37587158 108.22298828 195.84549316 107.50878906 196.3293457 C106.21949105 197.2010478 104.91492665 198.05081168 103.59277344 198.87182617 C100.97931108 200.66849034 99.30065713 202.04355446 98.32887268 205.13497925 C98.18755417 205.94234528 98.04623566 206.7497113 97.90063477 207.58154297 C97.7431778 208.47191757 97.58572083 209.36229218 97.42349243 210.27964783 C96.78426384 214.38580592 96.23239176 218.49416054 95.74609375 222.62109375 C95.64031509 223.48767105 95.53453644 224.35424835 95.42555237 225.24708557 C95.09257707 227.97679907 94.76451395 230.70706641 94.4375 233.4375 C94.10664141 236.19289032 93.77461892 238.94811352 93.43873596 241.70289612 C93.23093238 243.40756034 93.02601175 245.11257909 92.82432556 246.81797791 C92.43530291 250.01224265 92.02053536 252.93839393 91 256 C90.1975737 255.99476318 89.3951474 255.98952637 88.56840515 255.98413086 C80.96311393 255.94164376 73.35921649 255.93797548 65.75393963 255.97665405 C61.84492055 255.99519897 57.93704734 255.99933969 54.02807617 255.96923828 C50.24727276 255.94067587 46.46837067 255.95167874 42.68766212 255.98880005 C41.25376568 255.99618056 39.81972417 255.98989677 38.38596153 255.96896362 C27.98109567 255.82968718 21.88633196 258.04844976 14 265 C10.31804045 266.84097978 6.91848125 266.90877188 3 266 C1.00203 264.57821727 -0.9410752 263.07803143 -2.8425293 261.52954102 C-10.07582745 256.14106226 -16.9224401 255.73948567 -25.70703125 255.90234375 C-27.16820772 255.89667449 -28.62937358 255.88704219 -30.09049988 255.87367249 C-33.89040787 255.84931376 -37.68803692 255.87787552 -41.48773193 255.91845703 C-45.38316934 255.95036589 -49.27833801 255.93085961 -53.17382812 255.91601562 C-60.78318799 255.89442868 -68.39088076 255.92889033 -76 256 C-78.9181972 236.9407915 -78.9181972 236.9407915 -80.09765625 227.625 C-80.25943359 226.35398437 -80.42121094 225.08296875 -80.58789062 223.7734375 C-80.91209668 221.19579923 -81.23222691 218.61764589 -81.54882812 216.0390625 C-81.70931641 214.78867188 -81.86980469 213.53828125 -82.03515625 212.25 C-82.1731665 211.14140625 -82.31117676 210.0328125 -82.45336914 208.890625 C-83.32801643 204.2654245 -84.65419967 201.91836133 -88.5 199.22265625 C-89.2130127 198.71597412 -89.92602539 198.20929199 -90.66064453 197.68725586 C-91.81862549 196.88300171 -91.81862549 196.88300171 -93 196.0625 C-94.64335176 194.89861057 -96.28657743 193.7345431 -97.9296875 192.5703125 C-99.19377441 191.68134277 -99.19377441 191.68134277 -100.48339844 190.77441406 C-105.8827612 186.96741284 -111.23068508 183.08936765 -116.5703125 179.19921875 C-119.55438755 177.02760011 -122.57080734 174.91520819 -125.6171875 172.83203125 C-127.0783773 171.80504638 -128.53932477 170.77771662 -130 169.75 C-130.67691895 169.30325928 -131.35383789 168.85651855 -132.05126953 168.39624023 C-135.56659519 165.88145834 -137.36931144 163.96749716 -138.41796875 159.7109375 C-139.12698503 155.10952738 -139.34503198 150.52610186 -139.3125 145.875 C-139.30903564 145.05749268 -139.30557129 144.23998535 -139.30200195 143.39770508 C-139.12669756 133.43634785 -137.78846964 123.86604603 -133 115 C-130.14564359 116.28436872 -128.21495005 117.57042684 -126.12557983 119.89442444 C-125.59210245 120.47904418 -125.05862507 121.06366392 -124.5089817 121.66599941 C-123.93802458 122.30094861 -123.36706745 122.93589781 -122.77880859 123.59008789 C-114.93210208 132.15254644 -106.76524855 140.36256694 -98.5390625 148.55859375 C-97.01185383 150.08393103 -95.48487047 151.60949391 -93.95809937 153.13526917 C-89.99193405 157.09766596 -86.02277258 161.05704748 -82.05291748 165.01574707 C-77.98133344 169.07699325 -73.91267578 173.14116897 -69.84375 177.20507812 C-61.89864869 185.13954239 -53.95037 193.07081523 -46 201 C-46.94467407 199.73115466 -47.89064806 198.46327707 -48.8371582 197.19580078 C-49.36380569 196.4896463 -49.89045319 195.78349182 -50.43305969 195.05593872 C-52.58475963 192.23275318 -54.86804536 189.56290054 -57.1875 186.875 C-61.00569256 182.41402507 -64.70878113 177.88581335 -68.3125 173.25 C-73.10470814 167.08734571 -78.04153537 161.05396337 -83.01660156 155.03833008 C-86.68328031 150.60346698 -90.31076975 146.14213487 -93.890625 141.63671875 C-96.67525665 138.15592919 -99.49573112 134.70479676 -102.3125 131.25 C-106.94933245 125.55994991 -111.53436612 119.83457089 -116.01977539 114.02416992 C-118.2411487 111.16354068 -120.51052525 108.39295025 -122.94140625 105.70703125 C-123.41296143 105.1769043 -123.8845166 104.64677734 -124.37036133 104.10058594 C-125.66381794 102.65857981 -126.97961612 101.23670225 -128.296875 99.81640625 C-130 97 -130 97 -129.984375 93.66796875 C-128.8544474 89.45764328 -127.37375119 85.67746466 -125.5 81.75 C-125.14905273 81.00854736 -124.79810547 80.26709473 -124.43652344 79.50317383 C-121.15512423 72.84424631 -117.11071245 67.40851713 -112 62 C-111.29359375 61.24332031 -110.5871875 60.48664063 -109.859375 59.70703125 C-108 58 -108 58 -106 58 C-105.58862793 58.72251953 -105.17725586 59.44503906 -104.75341797 60.18945312 C-96.97233749 73.84894899 -89.16123284 87.4881392 -81.22216797 101.05664062 C-76.95346065 108.35510372 -72.71958979 115.67304039 -68.5 123 C-63.05917922 132.44721778 -57.57943712 141.87078328 -52.07617188 151.28173828 C-47.69444304 158.78488683 -43.36809831 166.31844052 -39.08129883 173.8762207 C-35.80689548 179.63708192 -32.43100205 185.33106249 -29 191 C-34.47466608 178.70498638 -40.08007607 166.48335481 -45.88421631 154.3404541 C-47.95233325 150.01310287 -50.01265185 145.68203695 -52.07421875 141.3515625 C-52.48980042 140.4790686 -52.90538208 139.60657471 -53.33355713 138.7076416 C-57.36930572 130.23207536 -61.37881692 121.7442838 -65.375 113.25 C-65.70222046 112.55464142 -66.02944092 111.85928284 -66.36657715 111.14285278 C-71.41479161 100.41124813 -76.42607682 89.6628637 -81.38867188 78.89135742 C-83.95499147 73.33572971 -86.56828512 67.81189577 -89.28515625 62.328125 C-89.80553467 61.27069092 -90.32591309 60.21325684 -90.86206055 59.1237793 C-91.84242608 57.14010922 -92.83410501 55.16197437 -93.83911133 53.19067383 C-94.27118896 52.31435303 -94.7032666 51.43803223 -95.1484375 50.53515625 C-95.53177246 49.775979 -95.91510742 49.01680176 -96.31005859 48.23461914 C-97.17634995 45.42882835 -96.8655758 43.78321209 -96 41 C-86.82379841 29.46950022 -74.38193258 22.50331977 -61 17 C-60.34 17 -59.68 17 -59 17 C-53.755535 33.96995673 -48.7974597 51.01295932 -43.94140625 68.09765625 C-43.37799189 70.07681824 -42.81430505 72.0559025 -42.25058979 74.03497881 C-40.4844388 80.23559578 -38.72037654 86.43680414 -36.95776367 92.63842773 C-35.16725889 98.9380682 -33.37344416 105.2367591 -31.5779224 111.5349713 C-30.01148582 117.03002421 -28.44707137 122.52565022 -26.88416904 128.02170938 C-25.96174539 131.26544187 -25.03848989 134.50892997 -24.11374092 137.75200081 C-18.8786131 156.11782618 -13.86672287 174.53377921 -9 193 C-9.16354257 192.19411564 -9.32708513 191.38823128 -9.49558353 190.55792618 C-12.05187359 177.96122308 -14.60800687 165.36449057 -17.15844727 152.76660156 C-17.68055182 150.18789193 -18.20266793 147.60918463 -18.72479439 145.03047943 C-19.08855632 143.23389822 -19.45229882 141.43731307 -19.81602287 139.64072418 C-22.36638217 127.0447603 -24.92490482 114.45048018 -27.48994732 101.85749817 C-29.42549286 92.35401929 -31.35683344 82.84969117 -33.28559589 73.34483337 C-34.48032533 67.45834357 -35.67722607 61.57231231 -36.8789978 55.68725586 C-38.02251787 50.08719104 -39.16053417 44.48603521 -40.294487 38.88402557 C-40.71681641 36.80269865 -41.14117266 34.72178186 -41.5676651 32.64130402 C-42.15394724 29.7798382 -42.73299451 26.91699866 -43.31030273 24.05371094 C-43.48313373 23.21890953 -43.65596472 22.38410812 -43.83403301 21.5240097 C-44.68216794 17.27632408 -45.18909074 13.35840356 -45 9 C-30.18052761 1.15887506 -16.56264418 -0.45799811 0 0 Z " fill="#FED303" transform="translate(177,40)"/>
<path d="M0 0 C7.71156792 -0.07007435 15.4230587 -0.12309858 23.13486671 -0.15543652 C26.71730568 -0.17097142 30.29952394 -0.19198112 33.88183594 -0.22631836 C37.35078415 -0.25935394 40.81952258 -0.27694403 44.28861618 -0.28463173 C46.23029257 -0.29272382 48.17188671 -0.31606891 50.11343384 -0.33988953 C64.98814511 -0.34265176 79.75362609 2.39040656 91.515625 12.0703125 C99.17120794 19.98108154 102.16048263 30.28461156 102.01953125 41.1640625 C101.39656153 57.565887 97.53807006 72.78321993 86 85 C80.9393461 89.21854826 76.26963138 91.98839677 70 94 C71.5377234 98.88218369 73.07642126 103.76405896 74.61608887 108.64562988 C75.16234983 110.37760752 75.70849299 112.10962232 76.2545166 113.8416748 C79.07872809 122.79824378 81.90890249 131.75251286 84.80078125 140.6875 C85.11812477 141.66888947 85.11812477 141.66888947 85.44187927 142.67010498 C86.426409 145.71276134 87.41471771 148.75412022 88.40795898 151.79394531 C88.75286377 152.85709961 89.09776855 153.92025391 89.453125 155.015625 C89.75379883 155.93633789 90.05447266 156.85705078 90.36425781 157.80566406 C91 160 91 160 91 162 C75.16 162 59.32 162 43 162 C41.66369018 157.99107054 40.58709605 154.44305716 39.76318359 150.36181641 C39.54310638 149.28114899 39.32302917 148.20048157 39.09628296 147.08706665 C38.86599396 145.93685028 38.63570496 144.78663391 38.3984375 143.6015625 C38.1571109 142.41146576 37.9157843 141.22136902 37.66714478 139.99520874 C36.89957899 136.20584064 36.13722234 132.41544615 35.375 128.625 C34.85451019 126.05071177 34.33368076 123.47649218 33.8125 120.90234375 C32.53772936 114.60235276 31.26723035 108.30151178 30 102 C28.48151536 109.27604605 27.2147066 116.57304504 26.0546875 123.9140625 C25.87994904 125.00971527 25.70521057 126.10536804 25.525177 127.23422241 C24.97326893 130.69752362 24.42408979 134.16125097 23.875 137.625 C23.49887896 139.98831007 23.12257862 142.35159161 22.74609375 144.71484375 C21.82832226 150.47618458 20.91425061 156.23809502 20 162 C5.15 162 -9.7 162 -25 162 C-23.72834895 151.19096611 -22.38462113 140.49105335 -20.66162109 129.75952148 C-20.43443533 128.32850712 -20.20755186 126.89744475 -19.98094177 125.46633911 C-19.37461446 121.6425993 -18.76414942 117.81953116 -18.152843 113.99658465 C-17.5110894 109.97850943 -16.87327666 105.95980861 -16.23501587 101.94117737 C-15.030135 94.35874744 -13.82179644 86.77687293 -12.61216223 79.19520003 C-11.23335935 70.55211437 -9.85849202 61.9084041 -8.48392749 53.26464355 C-5.66027831 35.50907215 -2.83177694 17.75427685 0 0 Z M40 35 C38.16042423 41.81140217 36.97862098 48.65992538 35.875 55.625 C35.69324219 56.73101562 35.51148438 57.83703125 35.32421875 58.9765625 C35.15277344 60.0490625 34.98132813 61.1215625 34.8046875 62.2265625 C34.64983887 63.19158691 34.49499023 64.15661133 34.33544922 65.15087891 C33.98512561 68.1263349 33.94296017 71.00679355 34 74 C39.37920487 74.56033384 42.60950707 73.76292423 47.07421875 70.66796875 C52.95470575 65.57472747 55.9006411 59.3650041 56.94140625 51.71484375 C57.03593821 47.3348628 56.22620921 43.78376902 54 40 C49.62021474 35.92578115 45.74742015 35.3963738 40 35 Z " fill="#000000" transform="translate(449,168)"/>
<path d="M0 0 C11.51808003 8.88171949 17.24087194 24.73338466 19.1328125 38.73046875 C19.45692009 43.67087118 19.51449773 48.59285676 19.5078125 53.54296875 C19.50726868 54.22377502 19.50672485 54.9045813 19.50616455 55.60601807 C19.39173744 86.89039055 9.41071773 117.17799128 -12.23046875 140.25 C-25.57372461 153.06913451 -41.91820738 159.15124782 -60.36328125 158.94140625 C-72.78773722 158.19344569 -84.74112043 154.03321521 -93.3125 144.703125 C-108.19228966 125.82298988 -109.91385763 101.8253421 -107.55810547 78.69580078 C-104.350535 54.37479712 -95.82155871 29.90504092 -78.8671875 11.73046875 C-78.3309375 11.10398438 -77.7946875 10.4775 -77.2421875 9.83203125 C-69.04596235 0.77520246 -57.59766075 -5.33254242 -45.8671875 -8.26953125 C-45.11824219 -8.4603125 -44.36929688 -8.65109375 -43.59765625 -8.84765625 C-27.81109265 -11.28678196 -13.25423108 -9.011768 0 0 Z M-46.69921875 36.29296875 C-60.64738027 50.87928145 -63.45628953 78.55064874 -63.05078125 97.82421875 C-62.57032553 105.42973058 -61.32594887 110.27170738 -55.8671875 115.73046875 C-53.00110621 117.16350939 -51.05417967 117.0369103 -47.8671875 116.73046875 C-39.18283555 112.38829278 -35.21167555 104.35629705 -32.03125 95.57421875 C-26.94896231 79.65707067 -21.17090501 55.54459746 -27.8828125 39.4296875 C-29.88131117 35.97989813 -32.23525213 33.60083428 -35.7421875 31.73046875 C-40.17143073 31.73046875 -43.42066303 33.49675918 -46.69921875 36.29296875 Z " fill="#000000" transform="translate(657.8671875,174.26953125)"/>
<path d="M0 0 C18.15 0 36.3 0 55 0 C56.04776475 18.75944762 57.09181546 37.51909016 58.12921143 56.27911377 C58.611093 64.99122375 59.09459816 73.70323777 59.58203125 82.41503906 C60.00725731 90.01510148 60.42932939 97.61533164 60.84773636 105.21577263 C61.06904202 109.23388343 61.29184357 113.25189774 61.51843262 117.26971436 C61.7324117 121.06482547 61.94211803 124.86015045 62.14878845 128.65566635 C62.26034823 130.68525072 62.37622191 132.71459659 62.49230957 134.743927 C62.98362548 143.8709801 63 152.82585189 63 162 C47.82 162 32.64 162 17 162 C17 155.07 17 148.14 17 141 C7.76 141.33 -1.48 141.66 -11 142 C-14.465 151.9 -14.465 151.9 -18 162 C-33.18 162 -48.36 162 -64 162 C-60.62521392 150.75071306 -60.62521392 150.75071306 -59.02758789 146.78515625 C-58.66217896 145.87182526 -58.29677002 144.95849426 -57.92028809 144.01748657 C-57.52506958 143.042341 -57.12985107 142.06719543 -56.72265625 141.0625 C-56.07605042 139.45125748 -56.07605042 139.45125748 -55.41638184 137.8074646 C-54.22078807 134.83022385 -53.02139986 131.8545449 -51.82048416 128.87944794 C-50.53259169 125.68607402 -49.24969001 122.49069707 -47.96655273 119.29541016 C-46.26452768 115.05758602 -44.56217839 110.81989411 -42.85804749 106.58291626 C-37.70042786 93.75755251 -32.56690692 80.92260697 -27.4375 68.0859375 C-26.61340656 66.02386142 -25.7893048 63.96178866 -24.9651947 61.89971924 C-22.08516624 54.6931495 -19.20521352 47.48654947 -16.32582474 40.27972412 C-13.96107852 34.36100632 -11.59559321 28.44258515 -9.22889709 22.52464676 C-8.4995945 20.70057334 -7.77060737 18.87637375 -7.04194641 17.05204391 C-6.04120358 14.54658702 -5.03941051 12.04155262 -4.03735352 9.53662109 C-3.74197724 8.79638199 -3.44660097 8.05614288 -3.1422739 7.29347229 C-1.11406957 2.22813914 -1.11406957 2.22813914 0 0 Z M19 44 C18.81002441 44.65033203 18.62004883 45.30066406 18.42431641 45.97070312 C15.11425264 57.27795954 11.78318714 68.57527913 8.2421875 79.8125 C8.01350983 80.53884644 7.78483215 81.26519287 7.54922485 82.0135498 C6.42304867 85.58604007 5.29061755 89.15642367 4.15087891 92.72460938 C3.73590474 94.03512527 3.32102378 95.34567067 2.90625 96.65625 C2.53822266 97.80931641 2.17019531 98.96238281 1.79101562 100.15039062 C0.86626323 102.98888924 0.86626323 102.98888924 1 106 C6.61 106 12.22 106 18 106 C18.28674653 98.45612585 18.57151938 90.91218071 18.85449219 83.36816406 C18.95095938 80.80369064 19.04795856 78.23923718 19.14550781 75.67480469 C19.28591745 71.98117147 19.42439125 68.28746988 19.5625 64.59375 C19.62812134 62.8839093 19.62812134 62.8839093 19.69506836 61.13952637 C19.90696819 55.42142868 20.0486979 49.72200371 20 44 C19.67 44 19.34 44 19 44 Z " fill="#000000" transform="translate(1084,168)"/>
<path d="M0 0 C27.06 0 54.12 0 82 0 C80.87351054 14.64436297 80.87351054 14.64436297 80.0625 19.703125 C79.88976562 20.78464844 79.71703125 21.86617187 79.5390625 22.98046875 C79.27222656 24.59888672 79.27222656 24.59888672 79 26.25 C78.73316406 27.93802734 78.73316406 27.93802734 78.4609375 29.66015625 C77.1308171 37.8691829 77.1308171 37.8691829 76 39 C73.26105915 39.08858646 70.5474673 39.11523479 67.80859375 39.09765625 C66.98875504 39.0962413 66.16891632 39.09482635 65.32423401 39.09336853 C62.69528618 39.08775289 60.06642227 39.07519779 57.4375 39.0625 C55.65950643 39.05748701 53.88151154 39.05292376 52.10351562 39.04882812 C47.73561842 39.03862752 43.3679036 39.01905532 39 39 C38.01 45.93 37.02 52.86 36 60 C46.89 60 57.78 60 69 60 C67.87370242 72.38927336 67.87370242 72.38927336 67.0625 77.4375 C66.88976562 78.51644531 66.71703125 79.59539062 66.5390625 80.70703125 C66.36117187 81.79371094 66.18328125 82.88039063 66 84 C65.73316406 85.67642578 65.73316406 85.67642578 65.4609375 87.38671875 C64.13334309 95.59997073 64.13334309 95.59997073 63 99 C51.78 99 40.56 99 29 99 C28.505 104.94 28.505 104.94 28 111 C27.34 114.96 26.68 118.92 26 123 C38.21 123 50.42 123 63 123 C60.67881356 142.73008475 60.67881356 142.73008475 59.4375 150.375 C59.31181641 151.179375 59.18613281 151.98375 59.05664062 152.8125 C58.55158012 155.97507783 58.01461372 158.95615883 57 162 C29.94 162 2.88 162 -25 162 C-23.87498781 149.62486596 -23.87498781 149.62486596 -23.01330566 144.16812134 C-22.81985062 142.93175934 -22.62639557 141.69539734 -22.42707825 140.42156982 C-22.21512625 139.09044313 -22.00310305 137.75932778 -21.79101562 136.42822266 C-21.56558865 134.99635518 -21.34047455 133.56443842 -21.11564636 132.13247681 C-20.5093898 128.27702756 -19.89872841 124.42228811 -19.2871685 120.56767702 C-18.64589411 116.52120397 -18.00855484 112.47411106 -17.37072754 108.42709351 C-16.30048013 101.63998214 -15.22757747 94.85329501 -14.15283203 88.06689453 C-12.7741755 79.36139493 -11.39979634 70.65522577 -10.02680206 61.94883156 C-8.84387866 54.447837 -7.65915322 46.94712723 -6.47405815 39.44647551 C-6.09411186 37.04135314 -5.71438286 34.63619653 -5.33467102 32.23103714 C-4.73816551 28.45350105 -4.14053943 24.67614383 -3.5420475 20.89892197 C-3.32280617 19.51426937 -3.10390843 18.12956231 -2.8853817 16.74479675 C-2.58677735 14.85303862 -2.28676995 12.96150212 -1.98669434 11.06997681 C-1.81930504 10.01221857 -1.65191574 8.95446033 -1.47945404 7.86464882 C-1.03911636 5.23371299 -0.52314583 2.61572916 0 0 Z " fill="#000000" transform="translate(789,168)"/>
<path d="M0 0 C31.02 0 62.04 0 94 0 C92.87394435 13.51266779 92.87394435 13.51266779 92.0625 18.53515625 C91.88976562 19.61087891 91.71703125 20.68660156 91.5390625 21.79492188 C91.27222656 23.41237305 91.27222656 23.41237305 91 25.0625 C90.73316406 26.7321582 90.73316406 26.7321582 90.4609375 28.43554688 C89.13782099 36.58653704 89.13782099 36.58653704 88 40 C79.75 40 71.5 40 63 40 C62.57799316 43.16070068 62.15598633 46.32140137 61.72119141 49.57788086 C60.12990838 61.32979231 58.32137888 73.04207873 56.4609375 84.75390625 C56.13114362 86.84038091 55.80152696 88.92688358 55.47207642 91.01341248 C54.78945308 95.33363201 54.10531634 99.65360792 53.41992188 103.97338867 C52.54226823 109.5051665 51.66761929 115.03741425 50.79396629 120.56982517 C50.11709689 124.85500917 49.43913521 129.14001974 48.76079178 133.42497063 C48.43761847 135.4666677 48.1146764 137.50840139 47.79197311 139.55017281 C47.34331557 142.38721208 46.89329796 145.22403219 46.44287109 148.06079102 C46.31091843 148.89657181 46.17896576 149.7323526 46.04301453 150.59346008 C45.91976303 151.36788452 45.79651154 152.14230896 45.66952515 152.94020081 C45.56372824 153.6075805 45.45793133 154.27496019 45.34892845 154.96256351 C44.94574432 157.31680563 44.46842672 159.65786641 44 162 C29.15 162 14.3 162 -1 162 C1.29825603 143.61395173 1.29825603 143.61395173 2.67993164 134.88378906 C2.83467453 133.89301361 2.98941742 132.90223816 3.14884949 131.88143921 C3.65018016 128.67578018 4.15504653 125.47069055 4.66015625 122.265625 C5.01379106 120.01123599 5.3672579 117.75682063 5.7205658 115.50238037 C6.45609641 110.81253571 7.193336 106.12296404 7.93188477 101.43359375 C8.87860009 95.42185415 9.82143273 89.40951329 10.76307011 83.39697647 C11.49002694 78.75745256 12.21877127 74.11821084 12.94808769 69.47905731 C13.29665272 67.26073766 13.64471541 65.04233902 13.9922657 62.82386017 C14.47621404 59.73678174 14.96250984 56.65008225 15.44946289 53.56347656 C15.59233734 52.64921906 15.73521179 51.73496155 15.88241577 50.79299927 C16.01552658 49.95237946 16.14863739 49.11175964 16.28578186 48.2456665 C16.40025193 47.5179517 16.514722 46.79023689 16.63266087 46.04047012 C16.99843367 44.00870056 17.49930182 42.00279271 18 40 C10.08 40 2.16 40 -6 40 C-4.02 26.8 -2.04 13.6 0 0 Z " fill="#000000" transform="translate(686,168)"/>
<path d="M0 0 C0.77943466 0.00222061 1.55886932 0.00444122 2.36192322 0.00672913 C3.24276077 0.00680466 4.12359833 0.00688019 5.03112793 0.00695801 C5.98841293 0.01211929 6.94569794 0.01728058 7.93199158 0.02259827 C9.39480812 0.02472069 9.39480812 0.02472069 10.88717651 0.02688599 C14.01542675 0.03250319 17.14360656 0.04505859 20.27183533 0.05775452 C22.38706867 0.0627673 24.50230313 0.06733059 26.61753845 0.07142639 C31.81482908 0.0824782 37.01207494 0.09962941 42.20933533 0.12025452 C41.64748338 7.92975548 40.78694701 15.61876868 39.5511322 23.34901428 C39.30460655 24.92449287 39.30460655 24.92449287 39.05310059 26.53179932 C38.51566791 29.95910197 37.97204213 33.38538804 37.42808533 36.81166077 C37.05046099 39.20866169 36.67314662 41.60571146 36.29612732 44.00280762 C35.50867804 49.00340803 34.71829367 54.0035325 33.92564392 59.00331116 C32.90872083 65.41854325 31.8979691 71.83472889 30.88922882 78.25125217 C30.11229998 83.19023127 29.33276623 88.1287963 28.55236816 93.06722832 C28.17851615 95.43427531 27.80533458 97.80142828 27.43283081 100.16868782 C26.91362633 103.46488509 26.39107026 106.76053319 25.86753845 110.05604553 C25.6368441 111.52640762 25.6368441 111.52640762 25.40148926 113.026474 C25.25851913 113.92198471 25.11554901 114.81749542 24.96824646 115.74014282 C24.78353161 116.90725973 24.78353161 116.90725973 24.59508514 118.09795475 C24.20933533 120.12025452 24.20933533 120.12025452 23.20933533 123.12025452 C34.09933533 123.12025452 44.98933533 123.12025452 56.20933533 123.12025452 C53.23933533 142.42525452 53.23933533 142.42525452 50.20933533 162.12025452 C24.46933533 162.12025452 -1.27066467 162.12025452 -27.79066467 162.12025452 C-24.34190263 136.82933287 -24.34190263 136.82933287 -22.44642639 124.87879944 C-22.23067743 123.50776498 -22.01511809 122.13670068 -21.79972839 120.76560974 C-21.22767306 117.12818276 -20.65274975 113.49121537 -20.07697439 109.8543756 C-19.59388497 106.80152149 -19.11214621 103.74845476 -18.63034451 100.6953972 C-17.49571398 93.50602012 -16.35856597 86.31704439 -15.21986389 79.12831116 C-14.04628025 71.71901452 -12.87753388 64.30896549 -11.71096981 56.8985607 C-10.70406772 50.50363445 -9.69402393 44.10920975 -8.68146718 37.7151764 C-8.0787692 33.90900469 -7.47732539 30.10264529 -6.87900925 26.29578209 C-6.31953873 22.73684316 -5.75617513 19.1785428 -5.18972397 15.62070847 C-4.88303569 13.6880437 -4.58042469 11.75473332 -4.27790833 9.82141113 C-4.09575775 8.68226257 -3.91360718 7.54311401 -3.72593689 6.3694458 C-3.56851957 5.3739078 -3.41110226 4.37836981 -3.24891472 3.35266399 C-2.59650187 0.17437161 -2.59650187 0.17437161 0 0 Z " fill="#000000" transform="translate(967.7906646728516,167.87974548339844)"/>
<path d="M0 0 C14.85 0 29.7 0 45 0 C40.99261265 26.94328515 36.84930184 53.8588436 32.56170654 80.75866699 C31.81587506 85.44046648 31.07210796 90.12259397 30.328125 94.8046875 C28.88734402 103.87009925 27.44423871 112.93513847 26 122 C41.84 122.495 41.84 122.495 58 123 C56.9823781 132.15859714 55.86823415 141.27152582 54.4375 150.375 C54.31076904 151.18880127 54.18403809 152.00260254 54.0534668 152.84106445 C53.54810214 155.99367263 53.01151174 158.96546477 52 162 C26.59 162 1.18 162 -25 162 C-23.87497862 147.37472212 -23.87497862 147.37472212 -23.01330566 141.91415405 C-22.81985062 140.6721524 -22.62639557 139.43015076 -22.42707825 138.1505127 C-22.21515781 136.82347028 -22.00313357 135.49644445 -21.79101562 134.16943359 C-21.56546229 132.73404581 -21.34035237 131.2985883 -21.11564636 129.86306763 C-20.5108127 126.00764135 -19.8996777 122.15323933 -19.2871685 118.29902601 C-18.64496241 114.25177558 -18.00821566 110.2036659 -17.37072754 106.15567017 C-16.30158509 99.37194255 -15.22850464 92.58884739 -14.15283203 85.80615234 C-12.90931497 77.96491258 -11.67121764 70.12283225 -10.43616152 62.28025568 C-9.24532161 54.71877518 -8.05154599 47.15776146 -6.85612488 39.59700394 C-6.34816565 36.38427839 -5.84108214 33.17141643 -5.33467102 29.9584465 C-4.73955623 26.18395043 -4.14182487 22.40987774 -3.5420475 18.63611984 C-3.32226711 17.25071084 -3.10335987 15.865163 -2.8853817 14.4794693 C-2.58819977 12.59127317 -2.28754106 10.70362521 -1.98669434 8.81600952 C-1.81930504 7.75900534 -1.65191574 6.70200115 -1.47945404 5.61296654 C-1 3 -1 3 0 0 Z " fill="#000000" transform="translate(880,168)"/>
<path d="M0 0 C1.6226791 1.6122102 3.1978071 3.25354641 4.75390625 4.9296875 C5.96046875 6.13625 5.96046875 6.13625 7.19140625 7.3671875 C8.03703125 8.2128125 8.88265625 9.0584375 9.75390625 9.9296875 C10.32625 10.46722656 10.89859375 11.00476562 11.48828125 11.55859375 C41.48806739 40.29838888 59.83838337 85.87526427 61.01776123 127.05134583 C61.08036817 130.57376211 61.08364414 134.09434818 61.06640625 137.6171875 C61.06524811 138.35415863 61.06408997 139.09112976 61.06289673 139.85043335 C60.96276267 172.17187109 60.96276267 172.17187109 54.75390625 179.9296875 C52.37225745 181.92409489 49.83427934 183.64139147 47.25390625 185.3671875 C45.71353246 186.4251767 44.17452044 187.48515069 42.63671875 188.546875 C41.83524414 189.09827148 41.03376953 189.64966797 40.20800781 190.21777344 C36.12508304 193.06590998 32.12797247 196.02800129 28.12890625 198.9921875 C27.3407251 199.57427979 26.55254395 200.15637207 25.74047852 200.75610352 C21.91618636 203.58179322 18.09942001 206.41727206 14.2890625 209.26171875 C12.92318324 210.27604996 11.55729814 211.29037331 10.19140625 212.3046875 C9.5660498 212.77527588 8.94069336 213.24586426 8.29638672 213.73071289 C3.97962486 216.9296875 3.97962486 216.9296875 1.75390625 216.9296875 C1.72304932 217.75984375 1.69219238 218.59 1.66040039 219.4453125 C0.97500503 233.36803159 -0.96702569 247.12109749 -2.80859375 260.9296875 C-3.14177106 263.45826816 -3.47445722 265.98691358 -3.80664062 268.515625 C-4.6141327 274.65440376 -5.42767684 280.79235619 -6.24609375 286.9296875 C-8.00136635 286.92849411 -8.00136635 286.92849411 -9.792099 286.92727661 C-20.84132697 286.92366811 -31.8900907 286.95155524 -42.93916988 287.0099659 C-48.6191442 287.03898917 -54.29870674 287.05706766 -59.97875977 287.04980469 C-65.46446946 287.04319837 -70.94936638 287.06577145 -76.43490791 287.10824203 C-78.52354602 287.11934994 -80.61226678 287.12009441 -82.70091057 287.11011124 C-85.63605283 287.09788468 -88.56873463 287.1231168 -91.50366211 287.15673828 C-92.35962479 287.14451736 -93.21558746 287.13229645 -94.0974884 287.1197052 C-100.0549408 287.24199407 -103.5483222 288.93419061 -108.29636478 292.51008415 C-114.32953309 296.9028516 -122.11702741 296.5116521 -129.24609375 295.9296875 C-134.44378184 294.9846533 -138.18996084 293.80347251 -142.30445862 290.39936829 C-146.68401284 287.25400777 -150.49907984 287.21767564 -155.76147461 287.27026367 C-156.689086 287.25977997 -157.61669739 287.24929626 -158.57241821 287.23849487 C-161.6189356 287.20984078 -164.66431002 287.21602519 -167.7109375 287.22265625 C-169.83087074 287.20953541 -171.9507915 287.19423 -174.07069397 287.17683411 C-179.63557544 287.13701676 -185.20012961 287.12679571 -190.76513672 287.12280273 C-196.44964506 287.11346523 -202.13396159 287.07604773 -207.81835938 287.04101562 C-218.96092857 286.97647285 -230.10335398 286.94320555 -241.24609375 286.9296875 C-242.29437349 278.83706694 -243.33785381 270.74384786 -244.37530518 262.64983273 C-244.85724453 258.89100529 -245.34080031 255.13240092 -245.828125 251.37426758 C-246.29883761 247.7437669 -246.76520635 244.11273168 -247.2286377 240.48129463 C-247.40571249 239.09970994 -247.58432054 237.71832082 -247.76452637 236.33714104 C-248.01771658 234.39448345 -248.26482568 232.45103629 -248.51171875 230.50756836 C-248.72489746 228.85210243 -248.72489746 228.85210243 -248.94238281 227.16319275 C-249.26446774 223.73406602 -249.29724219 220.37188548 -249.24609375 216.9296875 C-249.77976563 216.68863281 -250.3134375 216.44757813 -250.86328125 216.19921875 C-253.88686333 214.58829387 -256.60505595 212.62555261 -259.37109375 210.6171875 C-259.97800049 210.17987305 -260.58490723 209.74255859 -261.21020508 209.29199219 C-262.53019891 208.34027979 -263.84925456 207.38726512 -265.16748047 206.43310547 C-268.00643829 204.37974603 -270.85232427 202.33608249 -273.69848633 200.29272461 C-275.19891131 199.2098947 -276.69480573 198.1207614 -278.1862793 197.02563477 C-282.22514753 194.06471498 -286.29937987 191.22532573 -290.51171875 188.515625 C-304.011954 179.61748506 -304.011954 179.61748506 -306.0703125 174.02734375 C-306.84606848 170.23938408 -307.15565263 166.78987903 -307.24609375 162.9296875 C-307.40523045 161.59640757 -307.57534013 160.2644108 -307.75390625 158.93359375 C-308.52766447 152.20560216 -308.49028088 145.44418781 -308.49609375 138.6796875 C-308.49676849 137.97204254 -308.49744324 137.26439758 -308.49813843 136.53530884 C-308.43833471 96.88544256 -295.88528551 57.29616277 -271.24609375 25.9296875 C-270.58996094 25.053125 -269.93382812 24.1765625 -269.2578125 23.2734375 C-237.8955826 -17.16252493 -192.16380408 -40.0296573 -142.12109375 -46.47265625 C-91.04702814 -51.65099901 -37.85715887 -34.89442469 0 0 Z M-165.87109375 -35.9453125 C-167.11814087 -35.62663208 -167.11814087 -35.62663208 -168.39038086 -35.30151367 C-214.49362667 -23.0047269 -253.76529311 7.05893356 -278.24609375 47.9296875 C-297.58688746 81.85247918 -304.85929568 120.17503072 -301.24609375 158.9296875 C-301.07787109 160.82460938 -301.07787109 160.82460938 -300.90625 162.7578125 C-300.1217901 169.4219861 -299.48106957 172.42581502 -294.24609375 176.9296875 C-291.4004245 179.16766111 -288.49043256 181.30628309 -285.55859375 183.4296875 C-284.31033813 184.3417395 -284.31033813 184.3417395 -283.03686523 185.2722168 C-276.56499591 189.99407409 -270.06829073 194.68222262 -263.56176758 199.35620117 C-258.10893804 203.27977898 -252.74681442 207.3076022 -247.43359375 211.41796875 C-245.41504308 213.11919492 -245.41504308 213.11919492 -243.24609375 212.9296875 C-243.20871094 213.79682373 -243.17132813 214.66395996 -243.1328125 215.55737305 C-242.52221865 227.27014937 -241.1470885 238.84886607 -239.66210938 250.47973633 C-239.24118773 253.78066119 -238.82906461 257.08260407 -238.41796875 260.38476562 C-238.1528535 262.4896476 -237.88724705 264.59446778 -237.62109375 266.69921875 C-237.49814941 267.68348343 -237.37520508 268.66774811 -237.24853516 269.68183899 C-237.13171387 270.59096542 -237.01489258 271.50009186 -236.89453125 272.43676758 C-236.79317871 273.23456131 -236.69182617 274.03235504 -236.58740234 274.85432434 C-236.27141658 277.11719623 -236.27141658 277.11719623 -235.24609375 279.9296875 C-234.12380371 279.92889191 -233.00151367 279.92809631 -231.84521484 279.92727661 C-221.25186706 279.92366922 -210.65900368 279.95153732 -200.06581116 280.0099659 C-194.62009286 280.03899804 -189.17480435 280.0570648 -183.72900391 280.04980469 C-178.47021933 280.04320178 -173.21228332 280.06575181 -167.95367432 280.10824203 C-165.95073468 280.11935604 -163.94770881 280.12008885 -161.94476318 280.11011124 C-159.13151348 280.09789702 -156.32083741 280.12309336 -153.5078125 280.15673828 C-152.6856575 280.14451736 -151.8635025 280.13229645 -151.01643372 280.1197052 C-145.34169288 280.24144475 -142.27358796 281.82455831 -137.97337341 285.5119915 C-132.20779315 290.2441957 -124.24968422 289.47831637 -117.24609375 288.9296875 C-112.87800495 288.02350376 -109.83756569 286.5020395 -106.58810425 283.35762024 C-102.7273551 280.08805762 -99.10425374 280.21937562 -94.21142578 280.27026367 C-93.3229747 280.25977997 -92.43452362 280.24929626 -91.51914978 280.23849487 C-88.59704392 280.20980766 -85.67612735 280.21602898 -82.75390625 280.22265625 C-80.72222412 280.20953739 -78.69055502 280.19423259 -76.65890503 280.17683411 C-71.32252112 280.13699341 -65.98647847 280.12679422 -60.64996338 280.12280273 C-55.20013075 280.11346961 -49.7504985 280.07605488 -44.30078125 280.04101562 C-33.61589477 279.97644912 -22.93115825 279.94320129 -12.24609375 279.9296875 C-11.56673462 274.91558581 -10.88786958 269.90141754 -10.20942688 264.88719177 C-9.97943382 263.18785372 -9.7493148 261.48853271 -9.51905823 259.78923035 C-8.1286372 249.5271397 -6.75358412 239.26361861 -5.43359375 228.9921875 C-5.30647003 228.00350677 -5.17934631 227.01482605 -5.04837036 225.9961853 C-4.49062059 221.60892404 -4.10731016 217.36345803 -4.24609375 212.9296875 C-3.54355469 212.6925 -2.84101563 212.4553125 -2.1171875 212.2109375 C1.27487182 210.69720219 3.78635273 208.74493822 6.69140625 206.4296875 C11.20230455 202.882332 15.7576795 199.43330395 20.44140625 196.1171875 C21.00520996 195.71741699 21.56901367 195.31764648 22.14990234 194.90576172 C23.35273949 194.05304618 24.55570668 193.20051404 25.75878906 192.34814453 C29.62344549 189.60051191 33.46995943 186.8277254 37.31640625 184.0546875 C38.07848389 183.50707764 38.84056152 182.95946777 39.62573242 182.39526367 C48.63691145 176.42369098 48.63691145 176.42369098 52.75390625 166.9296875 C53.03041016 165.63417969 53.03041016 165.63417969 53.3125 164.3125 C56.88934858 144.52882715 55.39573765 123.5869434 51.75390625 103.9296875 C51.54507813 102.79829346 51.54507813 102.79829346 51.33203125 101.64404297 C44.70835199 67.3067057 26.62606881 36.99726943 2.75390625 11.9296875 C1.77357422 10.87007812 1.77357422 10.87007812 0.7734375 9.7890625 C-25.44025825 -17.7101663 -62.41488173 -33.08216444 -99.24609375 -39.0703125 C-100.35090088 -39.25062012 -101.45570801 -39.43092773 -102.59399414 -39.61669922 C-106.43112969 -40.0932951 -110.19918588 -40.2319875 -114.05859375 -40.23828125 C-115.1556665 -40.24327385 -115.1556665 -40.24327385 -116.27490234 -40.24836731 C-117.81786477 -40.25340344 -119.36083796 -40.25577667 -120.90380859 -40.25561523 C-123.21210778 -40.25778062 -125.51991142 -40.27591306 -127.828125 -40.29492188 C-140.75300125 -40.34517479 -153.30590587 -39.161491 -165.87109375 -35.9453125 Z " fill="#FEF8F8" transform="translate(308.24609375,47.0703125)"/>
<path d="M0 0 C1.14838186 2.60049462 1.11289104 3.6999823 0.10375977 6.38183594 C-0.36231689 7.24067383 -0.82839355 8.09951172 -1.30859375 8.984375 C-1.80810547 9.91894531 -2.30761719 10.85351562 -2.82226562 11.81640625 C-3.35529297 12.78449219 -3.88832031 13.75257812 -4.4375 14.75 C-5.23124023 16.22533203 -5.23124023 16.22533203 -6.04101562 17.73046875 C-7.34997465 20.15970802 -8.66988469 22.58229934 -10 25 C-10.74765625 24.57847656 -11.4953125 24.15695313 -12.265625 23.72265625 C-13.25046875 23.17480469 -14.2353125 22.62695312 -15.25 22.0625 C-16.71179688 21.24458984 -16.71179688 21.24458984 -18.203125 20.41015625 C-23.0402832 17.97130973 -27.59891069 17.43911765 -33 18 C-37.06795003 19.35598334 -38.53802822 20.09530525 -40.5 23.9375 C-41.06247484 27.3826584 -40.93954965 28.19408091 -39 31 C-36.66724265 32.40537131 -36.66724265 32.40537131 -33.8125 33.4375 C-32.20375 34.07171875 -32.20375 34.07171875 -30.5625 34.71875 C-27.47432467 35.82940955 -24.38055264 36.84477446 -21.25048828 37.82592773 C-10.6823256 41.16092994 -1.41026768 45.79757034 4.03125 55.91796875 C8.08789601 65.92811841 6.97230441 78.0166848 3.43359375 87.99609375 C-1.59906056 98.54135578 -10.391804 104.00152612 -21 108 C-25.00559062 109.09735468 -28.86209322 109.69390827 -33 110 C-33.87914062 110.06960937 -34.75828125 110.13921875 -35.6640625 110.2109375 C-47.22920821 110.65443866 -57.93545049 107.8500146 -68.375 103.125 C-69.1189502 102.79757813 -69.86290039 102.47015625 -70.62939453 102.1328125 C-75.75549088 99.67016992 -75.75549088 99.67016992 -76.84985352 96.6706543 C-77.03377961 93.39916229 -76.31378968 91.96221799 -74.69140625 89.13671875 C-74.19189453 88.25048828 -73.69238281 87.36425781 -73.17773438 86.45117188 C-72.64470703 85.53916016 -72.11167969 84.62714844 -71.5625 83.6875 C-70.76875977 82.29047852 -70.76875977 82.29047852 -69.95898438 80.86523438 C-68.65198771 78.56915915 -67.33214429 76.28154681 -66 74 C-61.67359497 74 -61.04696767 74.37535304 -57.75 76.8125 C-50.03088128 82.13039449 -43.45700953 84.05398732 -34 83 C-30.28983511 81.76327837 -28.65883669 81.03122265 -26.5625 77.75 C-25.85153963 74.27419376 -26.32177561 71.45894441 -27 68 C-30.71976994 66.46604758 -34.47434149 65.15282997 -38.296875 63.8984375 C-40.14679589 63.27191515 -41.99669656 62.64532888 -43.84570312 62.01611328 C-45.72571927 61.38317451 -47.61285516 60.77151255 -49.5 60.16015625 C-58.12699121 57.19577523 -65.86641038 53.64255211 -70.46362305 45.36450195 C-74.60846254 35.97438236 -74.33774268 24.84506005 -70.98046875 15.24609375 C-66.63306525 5.28690247 -59.70815089 -1.52648856 -49.82421875 -5.98046875 C-34.73602915 -11.38178704 -13.43786113 -8.30746931 0 0 Z " fill="#E22726" transform="translate(501,24)"/>
<path d="M0 0 C9.24 0 18.48 0 28 0 C28.495 26.235 28.495 26.235 29 53 C31.64 51.02 34.28 49.04 37 47 C44.77437638 43.43717321 55.73761733 43.71733756 63.96484375 45.72265625 C66.15742315 46.648412 68.03127256 47.66847229 70 49 C71.0725 49.70125 72.145 50.4025 73.25 51.125 C80.86467245 59.08579392 81.71020175 67.22863652 81.48828125 77.8828125 C81.48120651 79.17822968 81.47413177 80.47364685 81.46684265 81.80831909 C81.44793782 85.21832354 81.39898725 88.62722822 81.34332275 92.0368042 C81.29176758 95.52959049 81.2689762 99.02256338 81.24414062 102.515625 C81.19350977 109.34471473 81.09561727 116.17080214 81 123 C71.76 123 62.52 123 53 123 C52.97421875 119.52082031 52.9484375 116.04164062 52.921875 112.45703125 C52.88345388 109.08447199 52.83829368 105.71206559 52.79248047 102.33959961 C52.76426887 99.99722602 52.74305532 97.65475719 52.72900391 95.31225586 C52.70757776 91.94335161 52.66092684 88.57559263 52.609375 85.20703125 C52.60814636 84.16102249 52.60691772 83.11501373 52.60565186 82.03730774 C52.51573079 77.56538813 52.45359533 74.76913731 50.14941406 70.86206055 C47.35743995 68.44334331 45.40854706 68.03928337 41.75 67.6875 C36.93667415 68.08861049 34.9032059 69.16826238 31 72 C28.18924058 76.75536514 28.64905976 82.1933961 28.5859375 87.55078125 C28.56657135 88.56472458 28.5472052 89.57866791 28.5272522 90.62333679 C28.46760574 93.85297303 28.42113049 97.0826452 28.375 100.3125 C28.33680651 102.50587468 28.29775398 104.69923458 28.2578125 106.89257812 C28.16030399 112.26164065 28.08061599 117.63055101 28 123 C18.76 123 9.52 123 0 123 C0 82.41 0 41.82 0 0 Z " fill="#E22726" transform="translate(514,8)"/>
<path d="M0 0 C9.09895451 7.35693245 12.79013888 16.3725694 15.03515625 27.59765625 C15.32283913 31.33753366 15.28515625 35.09673044 15.28515625 38.84765625 C-3.52484375 38.84765625 -22.33484375 38.84765625 -41.71484375 38.84765625 C-38.99068452 49.46034745 -38.99068452 49.46034745 -33.71484375 52.84765625 C-28.42573301 54.61069316 -23.48214741 54.52244492 -18.27734375 52.53515625 C-15.49662689 50.94264061 -15.49662689 50.94264061 -13.71484375 47.84765625 C-11.00927734 47.50708008 -11.00927734 47.50708008 -7.61328125 47.5546875 C-6.4015625 47.56435547 -5.18984375 47.57402344 -3.94140625 47.58398438 C-2.67039062 47.60912109 -1.399375 47.63425781 -0.08984375 47.66015625 C1.18890625 47.67369141 2.46765625 47.68722656 3.78515625 47.70117188 C6.95223907 47.73662429 10.11849166 47.78604184 13.28515625 47.84765625 C12.49457143 55.90173913 9.25074703 61.40119735 3.13671875 66.71484375 C-8.42907905 74.87177483 -22.42313873 76.31295506 -36.19921875 74.3515625 C-46.21555944 72.27070299 -56.092903 68.1914965 -62.30859375 59.66015625 C-69.74482754 47.9954758 -71.5927492 35.72522674 -69.0234375 22.2109375 C-66.0849698 11.62507688 -60.29306428 3.14575148 -50.62109375 -2.33984375 C-35.04393838 -9.7993266 -14.60066307 -9.66255264 0 0 Z M-35.71484375 13.84765625 C-38.74664059 16.95923721 -39.64664894 18.574877 -40.71484375 22.84765625 C-31.14484375 22.84765625 -21.57484375 22.84765625 -11.71484375 22.84765625 C-12.71302573 17.85674633 -13.16915091 16.86316661 -17.03125 13.91796875 C-23.57222052 9.75967195 -29.04370591 10.39295987 -35.71484375 13.84765625 Z " fill="#E22726" transform="translate(671.71484375,59.15234375)"/>
<path d="M0 0 C9.24 0 18.48 0 28 0 C28 40.59 28 81.18 28 123 C18.76 123 9.52 123 0 123 C0 82.41 0 41.82 0 0 Z " fill="#E22726" transform="translate(737,8)"/>
<path d="M0 0 C9.24 0 18.48 0 28 0 C28 40.59 28 81.18 28 123 C18.76 123 9.52 123 0 123 C0 82.41 0 41.82 0 0 Z " fill="#E22726" transform="translate(696,8)"/>
<path d="M0 0 C2.57866282 0.6298701 3.70080431 1.22910257 5.5078125 3.14453125 C7.66952993 7.10767986 8.02943979 9.1364686 7.3828125 13.58203125 C6.11282931 16.43949342 5.0990122 18.06340388 2.5703125 19.89453125 C-0.39699573 20.82711384 -2.51402906 20.95441026 -5.6171875 20.58203125 C-11.19613487 17.42413651 -11.19613487 17.42413651 -12.6171875 14.58203125 C-13.10888882 9.6650181 -13.10039446 7.48401758 -10.7421875 3.08203125 C-7.63686098 -0.14750833 -4.31562478 -0.27697293 0 0 Z M-5.6171875 3.58203125 C-5.6171875 3.91203125 -5.6171875 4.24203125 -5.6171875 4.58203125 C-3.6371875 4.58203125 -1.6571875 4.58203125 0.3828125 4.58203125 C0.3828125 4.25203125 0.3828125 3.92203125 0.3828125 3.58203125 C-1.5971875 3.58203125 -3.5771875 3.58203125 -5.6171875 3.58203125 Z M-7.6171875 5.58203125 C-9.95493779 8.41776388 -9.95493779 8.41776388 -9.3671875 11.70703125 C-9.1196875 12.65578125 -8.8721875 13.60453125 -8.6171875 14.58203125 C-7.9571875 14.91203125 -7.2971875 15.24203125 -6.6171875 15.58203125 C-6.6171875 12.28203125 -6.6171875 8.98203125 -6.6171875 5.58203125 C-6.9471875 5.58203125 -7.2771875 5.58203125 -7.6171875 5.58203125 Z M2.3828125 6.58203125 C2.0528125 8.89203125 1.7228125 11.20203125 1.3828125 13.58203125 C2.0428125 13.58203125 2.7028125 13.58203125 3.3828125 13.58203125 C4.06239853 11.18483693 4.06239853 11.18483693 4.3828125 8.58203125 C3.7228125 7.92203125 3.0628125 7.26203125 2.3828125 6.58203125 Z M-3.6171875 11.58203125 C-3.6171875 12.90203125 -3.6171875 14.22203125 -3.6171875 15.58203125 C-4.6071875 16.07703125 -4.6071875 16.07703125 -5.6171875 16.58203125 C-3.6371875 16.58203125 -1.6571875 16.58203125 0.3828125 16.58203125 C-0.2771875 16.25203125 -0.9371875 15.92203125 -1.6171875 15.58203125 C-2.7421875 13.51953125 -2.7421875 13.51953125 -3.6171875 11.58203125 Z " fill="#000000" transform="translate(1161.6171875,167.41796875)"/>
<path d="M0 0 C0.33 0 0.66 0 1 0 C1.88425428 3.91190133 2.75670245 7.82623218 3.6184082 11.74316406 C3.91304307 13.07460913 4.21086512 14.40535314 4.51196289 15.73535156 C4.94478995 17.64980647 5.36512838 19.56707131 5.78515625 21.484375 C6.04176025 22.63647461 6.29836426 23.78857422 6.56274414 24.97558594 C6.96834936 27.78107868 6.95026906 29.37195618 6 32 C4.85357886 27.75015833 3.7079646 23.50009957 2.5625 19.25 C2.23701172 18.0434375 1.91152344 16.836875 1.57617188 15.59375 C1.26357422 14.43359375 0.95097656 13.2734375 0.62890625 12.078125 C0.34088135 11.00981445 0.05285645 9.94150391 -0.24389648 8.84082031 C-0.8496638 6.56484082 -1.4378853 4.28705896 -2 2 C-1.34 2 -0.68 2 0 2 C0 1.34 0 0.68 0 0 Z " fill="#F14E1B" transform="translate(162,204)"/>
<path d="M0 0 C1.95330768 2.92996152 3.57360066 5.87187207 5.1875 9 C5.73792969 10.051875 6.28835937 11.10375 6.85546875 12.1875 C8 15 8 15 7 18 C5.63034792 15.75820623 4.27947192 13.50827662 2.9375 11.25 C2.54755859 10.61578125 2.15761719 9.9815625 1.75585938 9.328125 C-1.08862881 4.49501234 -1.08862881 4.49501234 -0.60327148 1.78417969 C-0.40419189 1.19540039 -0.2051123 0.60662109 0 0 Z " fill="#F03C1E" transform="translate(141,215)"/>
<path d="M0 0 C0.99 0.33 1.98 0.66 3 1 C0.69 4.96 -1.62 8.92 -4 13 C-4.33 12.34 -4.66 11.68 -5 11 C-4.00390625 8.3984375 -4.00390625 8.3984375 -2.5625 5.375 C-2.08941406 4.37210938 -1.61632812 3.36921875 -1.12890625 2.3359375 C-0.75636719 1.56507813 -0.38382813 0.79421875 0 0 Z " fill="#F03F1D" transform="translate(225,220)"/>
<path d="M0 0 C0.99 0 1.98 0 3 0 C2.4739075 3.78786597 1.61896089 6.17152224 -1 9 C-1.66 9 -2.32 9 -3 9 C-2.01 6.03 -1.02 3.06 0 0 Z " fill="#EE2D20" transform="translate(229,211)"/>
</svg>
