<?xml version="1.0" standalone="no"?>
<!DOCTYPE svg PUBLIC "-//W3C//DTD SVG 20010904//EN"
 "http://www.w3.org/TR/2001/REC-SVG-20010904/DTD/svg10.dtd">
<svg version="1.0" xmlns="http://www.w3.org/2000/svg"
 width="600.000000pt" height="206.000000pt" viewBox="0 0 600.000000 206.000000"
 preserveAspectRatio="xMidYMid meet">

<g transform="translate(0.000000,206.000000) scale(0.100000,-0.100000)"
fill="#000000" stroke="none">
<path d="M368 2050 c-46 -14 -96 -49 -117 -83 -10 -18 -39 -81 -64 -142 -24
-60 -74 -182 -110 -270 -35 -88 -68 -176 -71 -197 -15 -81 31 -176 107 -219
38 -22 56 -24 199 -29 l158 -5 -86 -210 c-140 -343 -147 -363 -140 -418 7 -65
42 -125 94 -162 l44 -30 986 -3 c543 -1 1001 0 1019 3 40 7 126 84 143 127 8
18 15 35 17 37 2 3 20 -15 40 -38 44 -52 97 -87 172 -112 31 -11 57 -19 59
-19 1 0 18 0 37 0 32 0 35 -3 35 -27 0 -61 22 -108 74 -158 93 -91 9 -86 1226
-83 l1065 3 43 28 c41 26 94 96 108 141 5 17 231 608 259 677 4 11 28 20 72
27 258 43 352 346 162 524 -88 83 -36 79 -984 78 -819 0 -840 -1 -877 -20 -36
-19 -42 -19 -86 -6 -26 8 -59 17 -75 20 -27 6 -27 6 -12 42 34 81 10 187 -55
251 -36 36 -173 93 -221 93 -17 0 -32 6 -36 15 -3 9 -26 30 -52 48 -42 30 -52
32 -127 32 -69 0 -86 -4 -120 -26 -41 -26 -146 -69 -170 -69 -8 0 -14 10 -14
23 0 42 -56 113 -113 144 -30 17 -110 18 -1297 20 -696 1 -1277 -2 -1292 -7z
m492 -235 c53 -27 55 -47 19 -137 -17 -44 -40 -84 -49 -90 -10 -7 -15 -19 -12
-30 2 -10 -13 -63 -34 -118 l-37 -100 -255 0 c-162 0 -252 4 -250 10 2 5 46
115 98 245 l95 235 198 0 c157 0 204 -3 227 -15z m575 0 c64 -31 63 -47 -14
-237 -39 -94 -79 -181 -91 -193 -35 -38 -91 -47 -267 -43 -155 3 -162 4 -187
27 -14 14 -26 34 -26 45 0 39 136 359 158 374 50 33 98 41 245 42 115 0 157
-4 182 -15z m322 -22 l-6 -38 32 38 32 38 117 -3 118 -3 -128 -152 c-111 -133
-131 -163 -162 -240 l-35 -88 -132 -3 -132 -3 25 63 c63 156 60 135 40 265
-10 65 -20 128 -23 141 -5 22 -5 22 127 22 l133 0 -6 -37z m653 0 c0 -21 -5
-67 -10 -103 -5 -36 -12 -96 -15 -135 -4 -38 -11 -99 -16 -135 -5 -36 -9 -68
-9 -72 0 -5 -57 -8 -126 -8 l-125 0 7 45 c4 28 2 45 -4 45 -6 0 -22 -20 -36
-45 l-27 -45 -121 0 -120 0 14 23 c8 12 75 122 148 245 l134 222 153 0 153 0
0 -37z m430 32 c0 -3 -31 -84 -70 -180 -38 -96 -70 -177 -70 -180 0 -3 23 -5
50 -5 58 0 60 -5 30 -74 l-21 -46 -179 0 c-99 0 -180 4 -180 8 0 6 154 392
187 470 4 9 39 12 129 12 68 0 124 -2 124 -5z m528 -123 c-15 -59 -3 -110 27
-118 32 -8 64 11 80 49 l14 32 1 -37 c0 -49 24 -72 67 -65 18 3 46 15 62 26
16 12 32 21 35 21 3 0 -22 -56 -56 -125 -71 -142 -68 -139 -203 -150 -112 -9
-115 -10 -115 -51 0 -45 -39 -225 -52 -242 -6 -7 -8 -15 -5 -18 3 -3 1 -19 -5
-35 -6 -17 -13 -27 -16 -24 -3 3 -13 -9 -22 -27 -17 -36 -51 -48 -77 -27 -34
29 7 183 108 398 21 46 39 88 39 94 0 13 -205 2 -245 -13 -30 -12 -30 -12 -7
-21 13 -5 55 -12 93 -15 38 -4 69 -11 69 -16 0 -5 -20 -7 -45 -4 -25 3 -65 8
-89 11 -71 9 -74 21 -36 128 18 50 37 101 43 112 10 19 11 19 17 -5 9 -38 45
-38 80 0 17 18 33 43 36 56 8 31 24 31 24 1 0 -31 18 -47 51 -47 32 0 68 38
105 112 30 59 37 59 22 0z m-80 -34 c4 -23 -34 -43 -53 -28 -11 9 -12 17 -4
32 13 23 52 21 57 -4z m160 0 c4 -23 -34 -43 -53 -28 -11 9 -12 17 -4 32 13
23 52 21 57 -4z m137 -42 c0 -27 -29 -43 -49 -27 -12 10 -13 18 -5 33 13 25
54 21 54 -6z m-458 -2 c7 -20 -22 -45 -43 -37 -14 5 -19 35 -7 46 12 13 44 7
50 -9z m-2137 -349 c0 -2 -9 -27 -20 -55 l-20 -50 108 0 107 0 20 53 21 52
107 3 c59 1 107 1 107 0 0 -2 -9 -26 -20 -55 l-19 -52 104 -3 104 -3 25 58 25
57 105 0 c58 0 106 -4 106 -9 0 -5 -9 -30 -20 -55 l-19 -46 107 0 107 0 21 53
22 52 106 3 c58 1 106 1 106 -2 0 -2 -10 -29 -21 -60 l-22 -56 -107 0 -108 0
-17 -42 c-9 -24 -19 -48 -22 -55 -4 -9 23 -13 100 -15 l105 -3 -20 -52 -19
-53 -109 0 -108 0 -17 -42 c-9 -24 -19 -49 -22 -55 -4 -10 20 -13 101 -13 58
0 106 -3 106 -6 0 -3 -10 -28 -21 -55 l-21 -49 -108 0 -108 0 -17 -42 c-9 -24
-19 -49 -22 -55 -4 -10 20 -13 102 -13 120 0 117 4 74 -82 l-19 -38 -105 0
c-58 0 -105 2 -105 5 0 2 9 27 20 55 11 28 20 53 20 56 0 2 -46 3 -102 2
l-103 -3 -23 -50 c-13 -27 -29 -53 -36 -57 -11 -8 -206 -11 -206 -4 0 2 9 25
20 51 11 26 20 51 20 56 0 5 -47 9 -103 9 l-104 0 -26 -60 -26 -60 -105 0
c-67 0 -106 4 -106 10 0 6 6 23 14 38 7 15 17 37 21 50 l7 23 -105 -2 -105 -1
-25 -59 -26 -59 -105 0 c-58 0 -106 2 -106 4 0 2 10 29 21 60 l22 56 108 0
108 0 21 46 c11 26 20 50 20 55 0 5 -48 9 -106 9 -58 0 -104 3 -102 8 2 4 11
28 22 55 l19 47 108 0 109 0 14 33 c34 83 40 77 -79 77 -82 0 -106 3 -102 13
3 6 13 31 22 55 l17 42 109 0 109 0 14 33 c34 83 40 77 -79 77 -59 0 -105 4
-103 8 2 4 12 31 22 60 l20 52 108 0 c59 0 108 -2 108 -5z m4768 -27 c24 -23
30 -75 12 -108 -14 -26 -71 -43 -103 -31 -52 20 -73 84 -41 129 32 46 88 50
132 10z m-3041 -9 c27 -13 58 -39 71 -59 69 -102 -41 -336 -191 -409 -27 -13
-80 -29 -118 -35 l-69 -10 -26 -66 c-15 -36 -35 -84 -45 -107 l-18 -43 -132 0
c-101 0 -130 3 -126 13 2 6 72 178 153 381 l149 369 152 -5 c134 -5 158 -8
200 -29z m373 25 c0 -3 -19 -31 -43 -62 -127 -168 -197 -337 -182 -439 8 -57
53 -109 107 -124 143 -38 256 147 305 499 l18 132 82 0 c46 0 83 -4 83 -9 0
-5 -32 -87 -71 -182 -39 -96 -82 -202 -95 -237 -62 -162 -133 -255 -231 -303
-41 -20 -63 -24 -148 -24 -111 0 -143 12 -171 66 -36 71 -24 113 202 657 13
31 14 32 78 32 37 0 66 -3 66 -6z m807 -25 c67 -34 88 -67 88 -137 -1 -98 -68
-217 -152 -269 l-44 -28 5 -60 c3 -33 8 -99 12 -147 l6 -88 -141 0 -141 0 5
48 5 47 -21 -47 -21 -48 -135 0 c-74 0 -132 3 -130 8 3 4 32 75 65 157 103
258 234 580 239 589 3 5 74 6 159 4 135 -5 159 -8 201 -29z m600 0 c60 -31 85
-66 90 -126 9 -89 -67 -243 -152 -307 -48 -37 -97 -56 -178 -70 l-69 -11 -42
-105 -42 -105 -136 -3 -136 -3 73 178 c136 335 214 528 225 557 l11 29 155 -5
c137 -5 160 -8 201 -29z m477 9 c-6 -20 -59 -152 -169 -423 l-33 -80 70 -3
c50 -2 68 -6 65 -15 -3 -7 -25 -58 -48 -114 l-42 -103 -202 0 -203 0 50 123
c27 67 95 235 150 372 55 138 102 253 105 258 2 4 63 7 134 7 l130 0 -7 -22z
m605 -30 c-12 -29 -33 -83 -48 -120 l-26 -68 -82 0 c-100 0 -111 -18 -14 -22
l69 -3 -48 -115 -48 -115 -73 -5 c-45 -3 -74 -10 -77 -17 -3 -10 16 -13 72
-13 42 0 76 -4 76 -8 0 -5 -19 -55 -43 -113 l-43 -104 -212 -3 c-117 -1 -212
0 -212 3 0 3 57 146 126 318 70 172 138 340 151 375 l25 62 214 0 214 0 -21
-52z m-2672 -445 c-4 -17 -4 -17 -12 0 -4 9 -4 25 0 35 8 16 8 16 12 0 3 -10
3 -26 0 -35z m398 -334 c10 -14 -24 -49 -41 -42 -8 3 -22 2 -31 -1 -14 -6 -12
-11 16 -36 l32 -29 -20 -39 c-28 -54 -106 -83 -139 -50 -19 19 14 48 48 42 40
-9 48 14 14 41 -26 21 -27 24 -14 54 7 17 24 41 38 51 26 21 87 27 97 9z m95
-1 c0 -7 4 -19 9 -27 7 -11 14 -9 37 13 27 24 74 36 74 18 0 -4 -25 -32 -55
-61 -37 -36 -61 -70 -72 -102 -15 -42 -21 -49 -44 -49 l-27 0 20 52 c19 50 19
72 1 146 -4 19 -1 22 26 22 18 0 31 -5 31 -12z m221 -53 c15 -56 17 -58 27
-35 38 96 41 100 66 100 l26 0 -19 -47 c-66 -168 -66 -168 -92 -171 -24 -3
-27 2 -44 64 l-18 68 -26 -67 c-21 -55 -30 -67 -48 -67 -13 0 -23 4 -23 9 0 5
15 46 33 92 19 46 37 92 40 102 5 13 15 17 34 15 23 -3 29 -11 44 -63z m270
43 c-4 -13 -18 -25 -30 -28 -17 -4 -30 -24 -52 -80 -35 -87 -40 -93 -67 -88
-21 3 -20 4 9 76 33 84 34 89 15 94 -10 2 -11 9 -5 26 7 20 15 22 73 22 63 0
65 -1 57 -22z m74 -14 c-21 -50 -19 -54 15 -54 27 0 33 6 50 45 16 36 24 45
44 45 l26 0 -19 -47 c-67 -165 -68 -168 -95 -171 l-26 -3 15 42 c8 23 15 43
15 45 0 2 -15 4 -32 4 -30 0 -35 -5 -51 -45 -15 -36 -24 -45 -43 -45 l-24 0
21 53 c74 185 64 167 95 167 24 0 24 0 9 -36z m276 14 c-5 -15 -18 -24 -37
-26 -45 -6 -62 -42 -19 -42 14 0 25 -3 25 -7 -1 -20 -22 -37 -47 -38 -36 0
-45 -32 -10 -37 21 -3 23 -6 16 -25 -7 -20 -16 -23 -59 -23 -28 0 -50 5 -50
11 0 5 15 47 33 92 19 45 37 90 40 100 5 13 18 17 61 17 53 0 55 -1 47 -22z
m159 10 c0 -20 -13 -35 -34 -39 -13 -3 -30 -30 -54 -86 -29 -71 -37 -83 -58
-83 -13 0 -24 2 -24 6 0 3 14 37 30 76 34 80 36 88 15 88 -18 0 -18 5 -5 31 9
15 22 19 70 19 41 0 60 -4 60 -12z m80 5 c0 -5 -18 -54 -41 -110 -37 -92 -44
-103 -66 -103 -29 0 -31 -10 25 127 31 79 40 93 60 93 12 0 22 -3 22 -7z m175
-2 c3 -5 0 -21 -7 -35 -8 -19 -16 -25 -30 -20 -36 11 -69 -5 -84 -43 -14 -32
-14 -37 0 -51 12 -13 20 -13 41 -4 28 13 31 6 13 -33 -9 -21 -18 -25 -54 -25
-34 0 -46 5 -55 21 -28 53 20 156 85 185 36 15 82 18 91 5z m312 3 c12 -3 27
-19 33 -34 35 -84 -96 -214 -183 -181 -50 19 -47 98 6 158 45 51 93 70 144 57z
m152 -6 c0 -7 -17 -56 -38 -108 -34 -83 -42 -95 -65 -98 -14 -2 -26 -1 -26 1
0 5 80 198 87 210 7 12 43 8 42 -5z m77 -52 c-14 -36 -29 -74 -35 -85 -10 -17
-8 -20 18 -23 25 -3 27 -6 20 -25 -7 -20 -15 -23 -63 -23 -63 0 -62 -11 -11
110 15 36 31 75 36 88 6 15 17 22 34 22 l25 0 -24 -64z"/>
<path d="M388 1608 c-106 -257 -105 -228 -5 -228 l85 0 35 88 c27 68 40 88 56
90 12 2 28 -2 36 -8 11 -9 9 -23 -16 -80 -16 -38 -29 -74 -29 -80 0 -7 29 -10
86 -8 l85 3 30 73 c16 40 29 79 29 86 0 7 -12 19 -27 26 l-28 13 44 15 c37 12
46 21 66 66 35 80 37 92 20 110 -14 14 -45 16 -204 16 l-188 0 -75 -182z m290
121 c2 -9 -7 -38 -20 -65 -21 -45 -26 -49 -62 -52 -21 -2 -37 0 -35 5 2 4 15
36 29 71 24 59 27 63 55 60 18 -2 31 -9 33 -19z"/>
<path d="M1073 1777 c-18 -7 -39 -19 -47 -27 -15 -17 -136 -314 -136 -336 0
-27 40 -34 197 -34 223 0 210 -9 295 205 61 152 66 171 53 185 -20 20 -312 26
-362 7z m183 -41 c5 -14 -98 -279 -118 -303 -14 -17 -57 -17 -64 0 -5 15 103
291 122 310 13 12 54 8 60 -7z"/>
<path d="M1553 1753 c3 -21 11 -77 18 -124 12 -84 12 -86 -15 -155 -16 -38
-30 -75 -33 -81 -4 -10 17 -13 85 -13 l90 0 33 82 c28 67 53 106 137 205 l103
123 -73 0 -73 0 -55 -76 c-60 -83 -65 -81 -58 18 l4 58 -84 0 -85 0 6 -37z"/>
<path d="M2050 1664 c-41 -70 -96 -162 -122 -205 l-48 -79 74 0 75 0 23 43
c22 40 26 42 68 42 l45 0 -3 -42 -4 -43 82 0 c56 0 82 4 85 13 3 11 45 371 45
390 0 4 -55 7 -122 7 l-123 0 -75 -126z m162 -54 l-18 -85 -42 -3 c-23 -2 -42
0 -42 4 0 17 115 197 118 183 1 -8 -6 -52 -16 -99z"/>
<path d="M2599 1743 c-12 -27 -48 -115 -81 -198 -33 -82 -62 -153 -65 -157 -2
-5 61 -8 140 -8 136 0 145 1 150 20 5 18 0 20 -50 20 -64 0 -67 -21 23 196 35
86 64 160 64 165 0 5 -36 9 -80 9 l-81 0 -20 -47z"/>
<path d="M3300 1393 c0 -10 -3 -29 -6 -43 -3 -14 -2 -20 3 -15 4 6 40 12 78
14 86 3 136 13 137 26 2 21 -50 35 -129 35 -72 0 -83 -2 -83 -17z"/>
<path d="M1142 1115 c-12 -25 -22 -50 -22 -55 0 -6 43 -10 104 -10 l103 0 19
47 c11 27 21 51 22 55 2 5 -43 8 -100 8 l-104 0 -22 -45z"/>
<path d="M1583 1143 c-3 -10 -12 -33 -19 -52 -8 -18 -14 -35 -14 -37 0 -2 47
-4 104 -4 l104 0 21 49 c11 27 21 52 21 55 0 3 -47 6 -105 6 -92 0 -106 -2
-112 -17z"/>
<path d="M893 1033 c-3 -10 -12 -33 -19 -52 -8 -18 -14 -35 -14 -37 0 -2 47
-4 105 -4 58 0 105 1 105 3 0 1 9 26 20 55 l20 52 -105 0 c-92 0 -106 -2 -112
-17z"/>
<path d="M1311 1001 c-11 -27 -21 -52 -21 -56 0 -3 48 -4 106 -3 l106 3 19 50
c10 28 19 51 19 53 0 1 -47 2 -104 2 l-104 0 -21 -49z"/>
<path d="M1744 1003 c-11 -27 -20 -51 -22 -55 -2 -5 43 -8 101 -8 l105 0 21
49 c11 27 21 52 21 55 0 3 -47 6 -104 6 l-103 0 -19 -47z"/>
<path d="M1056 907 c-34 -83 -40 -77 78 -77 l106 0 14 33 c34 83 40 77 -78 77
l-106 0 -14 -33z"/>
<path d="M1485 898 c-9 -24 -19 -49 -22 -55 -4 -10 20 -13 101 -13 l107 0 13
33 c34 83 40 77 -77 77 l-105 0 -17 -42z"/>
<path d="M794 783 c-11 -27 -20 -51 -22 -55 -2 -5 43 -8 101 -8 l105 0 21 49
c11 27 21 52 21 55 0 3 -47 6 -104 6 l-103 0 -19 -47z"/>
<path d="M1221 781 c-11 -27 -21 -52 -21 -55 0 -3 47 -6 105 -6 l104 0 21 46
c11 26 20 50 20 55 0 5 -47 9 -104 9 l-104 0 -21 -49z"/>
<path d="M1654 783 c-11 -27 -20 -51 -22 -55 -2 -5 43 -8 101 -8 l105 0 21 49
c11 27 21 52 21 55 0 3 -47 6 -104 6 l-103 0 -19 -47z"/>
<path d="M966 687 c-34 -83 -40 -77 78 -77 l106 0 14 33 c34 83 40 77 -78 77
l-106 0 -14 -33z"/>
<path d="M1412 708 c-9 -12 -42 -85 -42 -94 0 -2 47 -4 105 -4 l106 0 19 46
c11 25 20 50 20 55 0 14 -196 11 -208 -3z"/>
<path d="M5656 1239 c-65 -52 1 -148 75 -108 61 32 30 127 -42 129 -4 0 -18
-9 -33 -21z m52 -5 c22 -6 32 -44 12 -44 -6 0 -3 -11 6 -25 21 -32 0 -34 -27
-2 l-18 22 -1 -23 c0 -36 -24 -21 -28 17 -6 58 5 68 56 55z"/>
<path d="M5680 1210 c0 -5 7 -10 15 -10 8 0 15 5 15 10 0 6 -7 10 -15 10 -8 0
-15 -4 -15 -10z"/>
<path d="M2382 1193 c-6 -16 -67 -167 -136 -336 l-125 -308 87 3 86 3 41 105
c45 114 47 116 132 119 57 2 140 40 187 86 51 49 88 116 106 192 10 46 10 57
-7 90 -27 57 -77 72 -235 72 l-126 1 -10 -27z m180 -120 c10 -9 18 -26 18 -38
0 -34 -41 -88 -82 -108 -65 -32 -66 -20 -4 128 16 39 39 45 68 18z"/>
<path d="M3516 1098 c-27 -68 -84 -208 -126 -313 -43 -104 -80 -200 -84 -212
-7 -23 -6 -23 77 -23 l84 0 53 138 c29 75 57 142 62 147 7 7 8 -40 4 -137 l-7
-148 92 0 92 0 -7 113 c-4 62 -9 125 -11 139 -5 24 1 30 45 54 83 45 150 153
150 241 0 99 -46 122 -240 123 l-135 0 -49 -122z m222 -24 c36 -25 27 -70 -26
-126 -24 -26 -88 -55 -98 -45 -3 3 12 46 32 96 39 96 50 105 92 75z"/>
<path d="M4167 1208 c-3 -7 -64 -158 -135 -335 l-130 -323 83 0 83 0 42 103
c23 56 45 105 49 109 3 4 33 10 66 14 33 4 83 15 112 26 107 39 193 161 201
283 3 55 2 62 -25 86 -15 15 -43 31 -62 38 -48 16 -277 15 -284 -1z m175 -135
c47 -42 -11 -138 -94 -157 -33 -8 -34 -2 -7 61 11 26 27 63 34 81 15 36 38 41
67 15z"/>
<path d="M4746 1211 c-3 -5 -54 -127 -112 -272 -58 -145 -117 -290 -130 -321
-13 -32 -24 -60 -24 -63 0 -3 69 -5 153 -5 l152 0 22 58 c12 31 25 65 29 75 5
15 -1 17 -60 17 -36 0 -66 2 -66 5 0 2 21 55 46 117 117 287 154 380 154 389
0 12 -157 12 -164 0z"/>
<path d="M5172 1148 c-29 -69 -214 -527 -233 -576 l-9 -22 167 2 166 3 29 69
c15 38 28 71 28 73 0 1 -36 3 -79 3 l-80 0 24 58 23 57 73 5 73 5 27 68 28 67
-71 0 c-63 0 -69 2 -63 18 4 9 12 31 17 47 18 51 25 55 107 55 l76 0 25 62
c14 35 27 66 28 70 2 5 -71 8 -161 8 l-165 0 -30 -72z"/>
<path d="M4865 365 c-35 -34 -32 -79 6 -83 32 -4 82 49 77 82 -5 33 -51 33
-83 1z"/>
</g>
</svg>
